<svg preserveAspectRatio="none" width="100%" height="100%" overflow="visible" style="display: block;" viewBox="0 0 10.5 10.5" fill="none" xmlns="http://www.w3.org/2000/svg">
<g id="Icon" clip-path="url(#clip0_0_4)">
<path id="Vector" d="M5.04219 1.00406C5.06136 0.965327 5.09098 0.93272 5.1277 0.909923C5.16442 0.887127 5.20678 0.875046 5.25 0.875046C5.29322 0.875046 5.33558 0.887127 5.3723 0.909923C5.40902 0.93272 5.43864 0.965327 5.45781 1.00406L6.46844 3.05112C6.53502 3.18586 6.63329 3.30243 6.75484 3.39082C6.87638 3.47922 7.01756 3.5368 7.16625 3.55862L9.42638 3.88938C9.4692 3.89558 9.50943 3.91364 9.54253 3.94152C9.57562 3.96941 9.60025 4.00599 9.61363 4.04714C9.62702 4.08829 9.62862 4.13237 9.61826 4.17438C9.60789 4.21639 9.58598 4.25467 9.555 4.28487L7.9205 5.8765C7.81271 5.98154 7.73206 6.11121 7.68549 6.25434C7.63892 6.39746 7.62784 6.54976 7.65319 6.69813L8.03906 8.94688C8.04662 8.98968 8.042 9.03375 8.02572 9.07405C8.00944 9.11435 7.98216 9.14927 7.94699 9.17481C7.91182 9.20036 7.87018 9.2155 7.82682 9.21852C7.78345 9.22153 7.74012 9.2123 7.70175 9.19187L5.68138 8.12963C5.54825 8.05972 5.40014 8.0232 5.24978 8.0232C5.09942 8.0232 4.95131 8.05972 4.81819 8.12963L2.79825 9.19187C2.75989 9.21218 2.71661 9.22131 2.67332 9.21824C2.63003 9.21516 2.58848 9.2 2.55338 9.17447C2.51828 9.14894 2.49105 9.11408 2.47479 9.07385C2.45852 9.03361 2.45388 8.98962 2.46137 8.94688L2.84681 6.69856C2.87227 6.55013 2.86124 6.39774 2.81467 6.25452C2.7681 6.1113 2.68739 5.98157 2.5795 5.8765L0.945 4.28531C0.91376 4.25514 0.891622 4.2168 0.881109 4.17466C0.870595 4.13252 0.872129 4.08827 0.885535 4.04696C0.89894 4.00565 0.923679 3.96893 0.956934 3.94099C0.990188 3.91305 1.03062 3.89502 1.07363 3.88894L3.33331 3.55862C3.48217 3.53697 3.62355 3.47946 3.74526 3.39106C3.86697 3.30265 3.96537 3.18599 4.032 3.05112L5.04219 1.00406Z" fill="var(--fill-0, #F0B100)" stroke="var(--stroke-0, #F0B100)" stroke-width="0.875" stroke-linecap="round" stroke-linejoin="round"/>
</g>
<defs>
<clipPath id="clip0_0_4">
<rect width="10.5" height="10.5" fill="white"/>
</clipPath>
</defs>
</svg>
