<svg preserveAspectRatio="none" width="100%" height="100%" overflow="visible" style="display: block;" viewBox="0 0 23 23" fill="none" xmlns="http://www.w3.org/2000/svg">
<g id="monstera 1" clip-path="url(#clip0_0_4)">
<path id="path1923" d="M14.6335 13.9807C13.4573 13.8134 12.9316 15.3468 13.3213 16.1605C13.9481 17.4693 16.0506 17.7334 16.6346 19.081C17.8665 17.9266 17.9947 16.2179 17.5181 15.0017" stroke="var(--stroke-0, #67635C)" stroke-width="0.8" stroke-miterlimit="22.926"/>
<path id="path1927" d="M11.256 2.90637C11.9557 1.77699 13.2399 1.19044 15.2017 1.58998C18.0831 -1.07205 20.7025 0.850202 21.9295 4.14837C21.0226 3.71141 20.0049 3.52328 18.9556 3.5925C18.5157 3.62157 18.1818 4.00408 18.2115 4.44382C18.2412 4.8832 18.6228 5.21638 19.0621 5.18732C20.3984 5.09914 21.6602 5.5719 22.5408 6.59477C22.6715 7.52416 22.7006 8.49285 22.6127 9.45238C21.8672 8.86161 20.996 8.65659 20.1068 8.53377C19.6708 8.47358 19.2377 8.63732 19.1061 9.05752C18.9743 9.4779 19.1954 9.98578 19.63 10.0588C24.4141 10.8631 21.2911 13.5219 18.9905 15.1499C16.1792 14.9503 12.1303 14.2953 15.8046 11.1277C16.1384 10.8399 16.0642 10.291 15.7336 9.99975C15.4033 9.70871 14.948 9.79316 14.6063 10.0706C13.9095 10.6366 13.2709 11.2635 12.9395 12.1552C12.367 11.3802 11.8897 10.5367 11.5198 9.67416C11.7426 8.3429 12.5766 7.28454 13.7651 6.66741C14.1558 6.46445 14.3095 5.98172 14.1071 5.59058C13.9045 5.19913 13.4207 5.04514 13.0295 5.24837C12.0963 5.73303 11.3235 6.42141 10.7745 7.26518C10.5069 5.86461 10.552 4.53874 10.956 3.50908" stroke="var(--stroke-0, #67635C)" stroke-width="0.8" stroke-miterlimit="22.926"/>
<path id="path1931" d="M15.2017 1.58999L18.9905 15.1498" stroke="var(--stroke-0, #67635C)" stroke-width="0.8" stroke-miterlimit="22.926"/>
<path id="path1935" d="M6.67642 8.90761C4.22827 6.64584 2.00271 8.27906 0.960205 11.0814C1.7307 10.7101 2.59541 10.5502 3.48692 10.6091C3.86072 10.6338 4.14445 10.9587 4.1192 11.3324C4.094 11.7057 3.76975 11.9888 3.39645 11.9641C2.26114 11.8891 1.18904 12.2908 0.440773 13.1599C0.329771 13.9495 0.305064 14.7727 0.379725 15.5878C1.01312 15.0859 1.7533 14.9117 2.50884 14.8074C2.87936 14.7562 3.24731 14.8953 3.35912 15.2523C3.47107 15.6095 3.28316 16.0411 2.91395 16.1031C-1.15081 16.7865 1.50259 19.0456 3.45737 20.4287C5.84591 20.2591 9.28607 19.7026 6.16422 17.0113C5.88063 16.7668 5.94366 16.3004 6.22446 16.053C6.50513 15.8057 6.892 15.8774 7.18229 16.1132C7.77427 16.5941 8.31701 17.1267 8.59849 17.8842C9.08491 17.2258 9.49046 16.5092 9.80478 15.7763C9.61543 14.6453 8.90679 13.746 7.89704 13.2216C7.56502 13.0492 7.43452 12.639 7.60644 12.3067C7.77853 11.9741 8.18961 11.8433 8.52204 12.0159C9.31491 12.4277 9.97157 13.0127 10.438 13.7296C10.9991 10.7928 9.94242 8.24245 6.67642 8.90761Z" stroke="var(--stroke-0, #67635C)" stroke-width="0.8" stroke-miterlimit="22.926"/>
<path id="path1939" d="M6.67642 8.90761L3.45737 20.4287" stroke="var(--stroke-0, #67635C)" stroke-width="0.8" stroke-miterlimit="22.926"/>
<path id="path1943" d="M12.1738 22.6631H8.1309C7.76048 22.6631 7.45708 22.3599 7.45708 21.9893C7.45708 21.6187 7.7603 21.3154 8.1309 21.3154H14.8691C15.2397 21.3154 15.5429 21.6187 15.5429 21.9893C15.5429 22.3599 15.2393 22.6631 14.8691 22.6631H14.1953M13.5214 22.6631H12.8476" stroke="var(--stroke-0, #67635C)" stroke-width="0.8" stroke-miterlimit="22.926"/>
<path id="path1947" d="M8.91493 12.2411C9.30508 13.3269 9.60286 14.5562 9.80479 15.7763C10.163 17.941 10.1523 20.0806 10.1523 21.3154" stroke="var(--stroke-0, #67635C)" stroke-width="0.8" stroke-miterlimit="22.926"/>
<path id="path1951" d="M12.1879 11.0069C11.743 13.8743 11.5 17.2677 11.5 21.3155M13.5838 5.18109C13.3654 5.8104 13.162 6.47749 12.9747 7.18546" stroke="var(--stroke-0, #67635C)" stroke-width="0.8" stroke-miterlimit="22.926"/>
<path id="path1955" d="M13.3213 16.1606C12.8548 17.469 12.8476 19.5655 12.8476 21.3154" stroke="var(--stroke-0, #67635C)" stroke-width="0.8" stroke-miterlimit="22.926"/>
<path id="path1959" d="M17.8901 1.9262H18.564M8.01972 10.3291L8.66871 10.5104" stroke="var(--stroke-0, #67635C)" stroke-width="0.8" stroke-miterlimit="2.613"/>
</g>
<defs>
<clipPath id="clip0_0_4">
<rect width="23" height="23" fill="white"/>
</clipPath>
</defs>
</svg>
