<svg preserveAspectRatio="none" width="100%" height="100%" overflow="visible" style="display: block;" viewBox="0 0 415.5 170.666" fill="none" xmlns="http://www.w3.org/2000/svg">
<g id="Isolation_Mode">
<path id="Vector" d="M344.799 65.3815C342.552 65.3911 340.349 65.5213 338.078 66.2589C336.512 66.7699 332.51 68.3079 333.657 70.6654C334.549 72.5022 339.428 71.2343 343.762 69.677C345.662 68.9925 347.523 68.2211 349.374 67.4256C350.695 66.8567 352.156 65.7623 353.646 65.743C355.396 65.7189 355.584 67.9848 355.56 69.2673C355.521 71.215 354.933 73.2157 353.482 74.5849C351.968 76.0168 349.731 76.0891 347.769 76.0071C344.895 75.8818 342.022 75.7275 339.149 75.9011C337.673 75.9878 336.15 75.9541 334.723 76.3976C332.91 76.9617 331.864 78.8564 334.067 79.7194C337.818 81.185 342.2 79.1794 345.966 78.6298C347.812 78.3598 349.668 78.138 351.524 77.9597C352.537 77.8632 353.843 77.5643 354.856 77.8006C356.08 78.085 353.173 83.5521 352.865 83.9908C351.91 85.36 350.628 86.5749 349.022 87.1197C346.67 87.92 343.777 87.0522 341.458 86.4882C338.319 85.7216 334.332 83.8992 331.049 84.4826C330.451 84.5886 329.858 84.9213 329.588 85.4661C329.304 86.0543 329.449 86.7822 329.825 87.3126C330.201 87.8429 330.779 88.2045 331.372 88.4696C332.153 88.8167 332.978 89.1205 333.807 89.3422C335.716 89.8533 337.673 90.1763 339.626 90.4752C340.561 90.6198 345.353 90.6728 345.209 92.1818C345.098 93.3244 343.618 94.3706 342.736 94.9058C340.479 96.2749 338.141 97.3356 335.697 98.3287C331.792 99.9197 327.11 100.117 323.109 98.7819C320.019 97.7502 316.74 95.4602 316.808 91.8444C316.817 91.2466 316.923 90.6198 317.126 89.9642C317.642 88.3009 318.293 86.6906 318.524 85.5384C317.271 89.1012 316.041 92.7845 314.86 96.569C314.74 96.9547 314.383 97.2054 313.997 97.2102C313.905 97.2102 313.809 97.2006 313.717 97.1717C313.235 97.0222 312.97 96.5112 313.12 96.0291C313.79 93.8837 314.474 91.7721 315.169 89.699C314.788 90.8271 313.539 91.4394 312.522 91.8685C310.955 92.5338 309.6 93.1846 307.874 92.77C306.24 92.3795 304.683 91.531 303.289 90.6102C301.573 89.4772 299.915 87.8573 299.408 85.7939C299.389 85.712 299.37 85.63 299.394 85.548C299.447 85.3215 299.736 85.254 299.968 85.2588C300.556 85.2732 301.115 85.4902 301.66 85.7071C303.598 86.4737 307.141 87.8381 308.867 85.8807C310.02 84.5694 308.964 83.2339 307.527 82.9543C305.584 82.5734 303.584 82.6506 301.612 82.4529C299.64 82.2552 297.605 81.7394 296.154 80.3943C293.652 78.0802 293.156 74.0305 293.262 70.81C293.291 69.8602 293.667 63.4193 295.542 65.2899C297.485 67.2231 299.423 69.1612 301.366 71.0944C302.508 72.237 304.717 74.9272 306.563 74.7344C309.181 74.4644 308.887 70.4725 306.009 68.8092C303.019 67.0833 299.977 65.3284 297.36 63.0577C296.757 62.5322 296.159 61.9585 295.822 61.2353C294.775 59.008 297.47 55.2572 298.579 53.4059C299.519 51.8439 300.802 49.0525 302.465 48.1075C303.473 47.5386 305.131 51.9499 305.401 52.4995C306.577 54.9101 307.561 57.3833 308.626 59.8372C308.679 59.9577 308.67 60.0927 308.718 60.2036C310.256 63.5977 312.223 65.1597 313.799 63.7616C315.371 62.3635 314.87 59.6251 312.666 57.4942C309.928 54.8474 307.445 51.0387 306.375 47.3603C306.36 47.3024 306.341 47.2446 306.327 47.1915C306.279 47.0131 306.235 46.8396 306.206 46.6757C305.7 43.8312 310.796 41.4641 312.498 40.7506C314.2 40.037 315.453 40.2443 315.294 44.1253C315.284 44.3037 315.289 44.5014 315.294 44.699C315.294 44.7328 315.294 44.7665 315.294 44.8003C315.304 45.0028 315.318 45.2149 315.337 45.4318C315.337 45.4463 315.337 45.4656 315.342 45.48C315.39 45.9525 315.468 46.4587 315.564 46.989C316.35 51.1014 318.62 56.4962 320.587 56.9976C320.641 57.0121 320.694 57.0314 320.747 57.0362C322.632 57.2628 323.528 56.1539 323.504 54.534C323.495 53.9748 323.398 53.2564 323.109 52.7695C322.097 51.0339 320.978 49.3658 319.956 47.6302C318.919 45.8705 317.357 43.19 317.946 41.0736C318.225 40.0708 318.558 39.0728 319.083 38.1761C320.573 35.6402 324.131 34.1698 326.975 33.9962C329.482 33.842 326.705 38.3352 325.968 41.9992C325.698 43.3443 325.789 45.0172 327.009 45.8898C328.311 46.8251 330.196 46.396 330.89 44.9401C331.782 43.0695 331.608 40.3649 331.715 38.3304C331.801 36.5996 331.69 34.488 332.433 32.8777C333.903 29.6621 339.327 30.6938 342.061 30.4142C344.216 30.1924 345.431 32.5354 346.313 34.136C346.901 35.2015 347.499 36.2621 348.015 37.3613C348.227 37.8145 349.037 39.1451 348.743 39.6803C348.458 40.1961 343.729 43.3154 339.828 46.0104C338.715 46.7817 337.616 47.5676 336.502 48.3389C335.596 48.9657 334.728 49.7178 334.279 50.7254C334.077 51.1786 333.971 51.6896 334.072 52.1765C334.366 53.5795 335.914 53.5987 336.97 53.1311C337.191 53.0347 337.423 52.9093 337.669 52.7599C341.058 50.6482 349.813 42.1728 350.946 41.7003C352.358 41.1073 354.002 49.4237 353.477 50.5711C353.38 50.7832 353.241 50.9713 353.077 51.14C352.339 51.9065 351.269 52.1524 350.343 52.5911C350.334 52.5911 350.324 52.6008 350.314 52.6056C347.489 53.7868 344.558 54.7365 341.622 55.6043C340.441 55.9563 339.25 56.2937 338.049 56.583C336.719 56.906 334.858 57.6195 335.142 59.3503C335.287 60.2084 336.092 60.8641 337.567 60.5218C342.398 59.4033 347.123 57.3254 351.708 55.4597H351.722C352.947 54.9535 354.692 53.6711 355.555 55.1752C356.418 56.6746 356.476 58.8634 356.5 60.5459C356.505 60.8882 356.447 61.2305 356.336 61.5632C355.656 63.5687 352.884 65.314 348.796 65.3863C347.431 65.4104 346.11 65.3766 344.799 65.3863V65.3815ZM324.555 47.6013C323.789 47.9002 323.837 49.2887 324.338 50.5807C324.372 50.6675 324.411 50.7543 324.449 50.8411C324.449 50.8459 324.454 50.8555 324.459 50.8604C324.493 50.9423 324.531 51.0195 324.57 51.0966C324.575 51.1062 324.584 51.1207 324.589 51.1303C324.628 51.2027 324.661 51.275 324.705 51.3425C324.714 51.3569 324.724 51.3762 324.734 51.3907C324.772 51.4534 324.811 51.516 324.849 51.5787C324.864 51.598 324.873 51.6173 324.888 51.6366C324.926 51.6944 324.965 51.7523 325.004 51.8053C325.018 51.8246 325.033 51.8487 325.052 51.868C325.09 51.921 325.129 51.9692 325.168 52.0174C325.187 52.0415 325.201 52.0608 325.221 52.0849C325.259 52.1283 325.298 52.1717 325.331 52.2151C325.351 52.2392 325.375 52.2585 325.394 52.2826C325.433 52.3212 325.471 52.3597 325.51 52.3935C325.534 52.4128 325.558 52.4369 325.577 52.4561C325.616 52.4899 325.654 52.5188 325.693 52.5526C325.717 52.5719 325.741 52.5911 325.77 52.6104C325.809 52.6393 325.847 52.6635 325.886 52.6876C325.91 52.7068 325.939 52.7213 325.968 52.7406C326.006 52.7647 326.045 52.784 326.084 52.8033C326.112 52.8177 326.141 52.8322 326.17 52.8467C326.209 52.8659 326.247 52.8756 326.286 52.89C326.315 52.8997 326.344 52.9141 326.373 52.919C326.411 52.9286 326.455 52.9383 326.493 52.9479C326.522 52.9527 326.551 52.9624 326.58 52.9672C326.623 52.972 326.667 52.9768 326.705 52.9768C326.734 52.9768 326.763 52.9816 326.792 52.9768C326.84 52.9768 326.889 52.9672 326.937 52.9624C326.961 52.9624 326.985 52.9624 327.009 52.9527C327.081 52.9383 327.154 52.919 327.226 52.8949C327.313 52.8659 327.385 52.8274 327.453 52.7888C327.472 52.7743 327.491 52.7599 327.511 52.7502C327.559 52.7165 327.602 52.6827 327.641 52.6442C327.655 52.6297 327.674 52.6104 327.689 52.596C327.732 52.5477 327.771 52.4947 327.805 52.4417C327.805 52.4369 327.814 52.4272 327.819 52.4224C327.853 52.3597 327.882 52.2922 327.906 52.2199C327.911 52.2006 327.916 52.1765 327.925 52.1572C327.94 52.1042 327.949 52.0464 327.959 51.9885C327.959 51.9644 327.964 51.9403 327.969 51.9162C327.973 51.8487 327.978 51.7812 327.973 51.7137C327.973 51.6992 327.973 51.6848 327.973 51.6703C327.973 51.5835 327.959 51.4968 327.944 51.4052C327.944 51.381 327.935 51.3569 327.93 51.3328C327.916 51.2653 327.901 51.193 327.887 51.1207C327.882 51.0918 327.872 51.0629 327.863 51.0339C327.843 50.9568 327.819 50.8797 327.79 50.8025C327.785 50.7832 327.776 50.7639 327.771 50.7447C327.737 50.6482 327.699 50.547 327.655 50.4506C327.646 50.4313 327.636 50.412 327.631 50.3927C327.597 50.3108 327.559 50.2336 327.515 50.1517C327.501 50.1227 327.486 50.0938 327.472 50.0697C327.433 49.9926 327.39 49.9154 327.347 49.8383C327.337 49.819 327.323 49.7949 327.313 49.7756C327.255 49.6792 327.197 49.578 327.135 49.4815C327.125 49.4719 327.12 49.4574 327.11 49.4478C327.057 49.3658 327 49.2839 326.942 49.2019C326.922 49.1778 326.908 49.1537 326.889 49.1296C326.836 49.0573 326.783 48.985 326.725 48.9175C326.71 48.8982 326.696 48.8789 326.677 48.8596C326.604 48.7728 326.532 48.6861 326.46 48.6041C325.799 47.8761 325.066 47.4085 324.565 47.6061L324.555 47.6013ZM313.992 68.1922C314.04 68.303 314.094 68.4139 314.156 68.52C314.166 68.5344 314.175 68.5489 314.18 68.5682C314.238 68.6694 314.301 68.7755 314.368 68.8719C314.368 68.8767 314.378 68.8864 314.383 68.8912C314.527 69.1082 314.696 69.3155 314.875 69.5131C314.889 69.5276 314.903 69.5421 314.918 69.5565C314.995 69.6385 315.077 69.7204 315.159 69.7976C315.173 69.812 315.188 69.8265 315.202 69.841C315.395 70.0193 315.603 70.1833 315.815 70.3279C315.834 70.3424 315.858 70.3568 315.877 70.3665C315.964 70.4195 316.046 70.4725 316.133 70.5256C316.162 70.54 316.186 70.5545 316.215 70.5738C316.306 70.622 316.403 70.6702 316.499 70.7136C316.514 70.7184 316.528 70.728 316.547 70.7377C316.658 70.7859 316.769 70.8245 316.88 70.863C316.904 70.8727 316.933 70.8775 316.957 70.8823C317.044 70.9064 317.131 70.9305 317.218 70.9498C317.251 70.9595 317.285 70.9643 317.324 70.9691C317.406 70.9836 317.492 70.9932 317.574 70.998C317.603 70.998 317.632 71.0028 317.661 71.0077C317.772 71.0125 317.878 71.0077 317.989 71.0077C318.008 71.0077 318.028 71.0028 318.047 70.998C318.134 70.9884 318.22 70.9739 318.312 70.9546C318.346 70.945 318.379 70.9353 318.413 70.9257C318.49 70.9016 318.563 70.8775 318.635 70.8486C318.664 70.8341 318.698 70.8245 318.727 70.81C318.828 70.7618 318.924 70.7088 319.021 70.6461C319.098 70.5979 319.165 70.54 319.228 70.4822C319.247 70.4629 319.267 70.4436 319.286 70.4243C319.329 70.3857 319.368 70.3424 319.402 70.299C319.421 70.2749 319.435 70.2556 319.455 70.2315C319.488 70.1881 319.517 70.1447 319.541 70.1013C319.556 70.0772 319.57 70.0531 319.585 70.029C319.614 69.976 319.638 69.9277 319.657 69.8747C319.667 69.8554 319.676 69.8361 319.681 69.8169C319.71 69.7445 319.729 69.6674 319.749 69.5903C319.749 69.5854 319.749 69.5758 319.749 69.5662C319.763 69.4987 319.773 69.4263 319.782 69.3492C319.782 69.3251 319.782 69.301 319.782 69.2721C319.782 69.2142 319.787 69.1564 319.782 69.0985C319.782 69.0696 319.782 69.0407 319.782 69.0069C319.782 68.9491 319.773 68.896 319.768 68.8382C319.768 68.8092 319.763 68.7803 319.758 68.7466C319.749 68.6839 319.739 68.6212 319.725 68.5586C319.72 68.5344 319.715 68.5103 319.71 68.4862C319.691 68.3995 319.667 68.3175 319.638 68.2307C319.628 68.2018 319.618 68.1729 319.609 68.1439C319.59 68.0861 319.57 68.0282 319.546 67.9704C319.532 67.9318 319.512 67.8932 319.498 67.8499C319.479 67.8016 319.459 67.7583 319.435 67.71C319.416 67.6667 319.392 67.6233 319.373 67.5799C319.353 67.5413 319.329 67.4979 319.305 67.4593C319.281 67.4111 319.257 67.3677 319.228 67.3195C319.209 67.2858 319.189 67.2569 319.17 67.2231C319.054 67.0303 318.919 66.8471 318.78 66.6687C318.77 66.6542 318.76 66.6398 318.746 66.6253C318.698 66.5674 318.649 66.5096 318.596 66.4517C318.582 66.4373 318.572 66.4228 318.558 66.4084C318.505 66.3505 318.452 66.2926 318.394 66.2348C318.384 66.2252 318.379 66.2203 318.37 66.2107C317.666 65.502 316.793 64.9813 315.95 64.9186C315.434 64.8801 314.928 65.0054 314.479 65.367C313.578 66.095 313.539 67.1701 313.987 68.1873L313.992 68.1922ZM313.891 77.6849C315.077 76.4603 312.85 74.0112 311.133 74.0691C310.936 74.0739 310.743 74.1173 310.564 74.1944C310.386 74.2715 310.222 74.3921 310.073 74.556C308.506 76.2916 312.43 79.1939 313.891 77.6849ZM321.267 86.2808C319.725 88.3057 325.804 94.7322 327.853 92.0951C329.902 89.4628 323.818 82.935 321.267 86.2808ZM331.917 70.7763C331.546 68.9491 326.734 68.0186 326.672 70.863C326.614 73.2929 332.293 72.6034 331.917 70.7763Z" fill="var(--fill-0, #4F5826)"/>
<path id="Vector_2" d="M54.6086 31.5787C55.1775 33.753 55.621 35.9129 55.4909 38.2993C55.4041 39.9433 54.9461 44.2051 52.3716 43.7085C50.366 43.3229 50.3371 38.28 50.7276 33.6903C50.8964 31.6799 51.1663 29.684 51.4556 27.6881C51.6629 26.2659 52.3427 24.5689 51.9859 23.1274C51.5617 21.4303 49.3199 21.8305 48.0857 22.1872C46.2151 22.7272 44.4313 23.8119 43.4815 25.5668C42.4884 27.3988 42.9946 29.5828 43.5828 31.4534C44.4409 34.2014 45.3328 36.9349 45.9065 39.7553C46.2006 41.2016 46.6297 42.6672 46.567 44.1617C46.4899 46.0564 44.9279 47.5606 43.5298 45.6466C41.1481 42.3972 41.9581 37.6484 41.5194 33.8687C41.3024 32.0126 41.0421 30.1661 40.7335 28.3245C40.5648 27.3217 40.5166 25.9814 40.0296 25.0654C39.4415 23.9566 34.9048 28.175 34.5625 28.58C33.4874 29.8576 32.6438 31.4051 32.528 33.1022C32.3641 35.5802 33.9406 38.1498 35.088 40.2518C36.6356 43.0866 39.4222 46.471 39.7066 49.7927C39.7597 50.4002 39.5909 51.0559 39.1329 51.456C38.6412 51.8851 37.8987 51.9333 37.2865 51.7019C36.6742 51.4753 36.1824 51.0077 35.7726 50.5014C35.2327 49.8361 34.7313 49.1178 34.3022 48.3753C33.3187 46.659 32.4991 44.856 31.7085 43.0432C31.3276 42.1754 30.0404 37.5568 28.623 38.092C27.5479 38.497 26.9163 40.194 26.627 41.1823C25.8846 43.7182 25.4652 46.2493 25.1325 48.8671C24.6022 53.047 25.6146 57.6222 27.9384 61.1464C29.7318 63.8655 32.7932 66.4448 36.2644 65.4468C36.8381 65.2829 37.4166 65.0225 38 64.6561C39.4752 63.7305 40.8637 62.6891 41.9147 62.1685C38.7955 64.2946 35.5509 66.4351 32.2002 68.5516C31.8579 68.7685 31.7085 69.1783 31.8049 69.5495C31.829 69.6411 31.8627 69.7279 31.9158 69.8099C32.1858 70.2341 32.7498 70.3643 33.1741 70.0943C35.0736 68.8939 36.9393 67.6886 38.7665 66.4833C37.7734 67.139 37.5082 68.5082 37.354 69.6026C37.1177 71.2899 36.8381 72.7652 37.6818 74.3224C38.4821 75.8025 39.7018 77.0849 40.9505 78.1986C42.4884 79.5677 44.4795 80.7489 46.6008 80.7055C46.6827 80.7055 46.7695 80.6959 46.8418 80.6573C47.0443 80.5464 47.0395 80.2523 46.9768 80.0306C46.8129 79.4665 46.4561 78.9844 46.109 78.5119C44.8652 76.839 42.6379 73.7632 44.0842 71.5937C45.0532 70.1425 46.6152 70.8175 47.2613 72.1385C48.1291 73.9174 48.5726 75.87 49.2668 77.7261C49.9659 79.5774 50.988 81.4142 52.6609 82.47C55.5391 84.2876 59.584 83.7283 62.6646 82.7979C63.571 82.5231 69.7034 80.503 67.4134 79.1724C65.0462 77.7936 62.6743 76.4196 60.3071 75.0407C58.909 74.2308 55.7367 72.7941 55.4475 70.9573C55.0377 68.3587 58.9669 67.6163 61.3147 69.969C63.7542 72.4133 66.2322 74.9009 69.1008 76.8438C69.7661 77.2922 70.47 77.7164 71.2606 77.8611C73.6856 78.295 76.612 74.7274 78.1162 73.1798C79.3841 71.8733 81.7513 69.9111 82.2334 68.0646C82.5275 66.9461 77.8317 66.4785 77.2339 66.358C74.6016 65.8421 71.9597 65.5288 69.3129 65.1334C69.1827 65.1141 69.0526 65.1575 68.9369 65.1382C65.2584 64.526 63.248 63.0266 64.1881 61.1464C65.133 59.2662 67.91 59.0444 70.5374 60.6257C73.8013 62.5879 78.121 64.0101 81.9489 64.0921C82.0068 64.0921 82.0695 64.0921 82.1225 64.0921C82.3105 64.0921 82.4889 64.0921 82.6528 64.0728C85.531 63.8269 86.5049 58.2971 86.7556 56.4699C87.0063 54.6428 86.4808 53.4809 82.7734 54.6379C82.5998 54.691 82.4118 54.7392 82.2189 54.7874C82.1852 54.797 82.1514 54.8018 82.1177 54.8115C81.92 54.8549 81.7127 54.8983 81.4958 54.932C81.4813 54.932 81.462 54.9368 81.4476 54.9417C80.9799 55.0188 80.4689 55.0766 79.9337 55.1152C75.7587 55.4189 69.9589 54.609 68.9706 52.8397C68.9417 52.7915 68.9127 52.7481 68.8935 52.6999C68.1896 50.9353 69.0284 49.7831 70.6001 49.3878C71.1449 49.2528 71.8632 49.1612 72.408 49.3155C74.3413 49.8458 76.2456 50.4966 78.1837 51.0366C80.1507 51.5862 83.1398 52.4058 85.0344 51.2873C85.9312 50.757 86.8086 50.1833 87.5366 49.4408C89.6048 47.3485 90.1062 43.5302 89.5421 40.7388C89.0456 38.2752 85.4201 42.1176 82.0695 43.7712C80.8353 44.3787 79.1961 44.721 78.039 43.7712C76.8 42.754 76.7277 40.8255 77.9571 39.7745C79.5336 38.4295 82.19 37.8991 84.1281 37.2772C85.7769 36.7469 87.8451 36.3082 89.2143 35.1801C91.943 32.9286 89.547 27.9581 89.1131 25.239C88.7708 23.0984 86.1963 22.5295 84.4222 22.0908C83.241 21.7967 82.0647 21.4882 80.8642 21.2761C80.3725 21.1893 78.8779 20.7457 78.4392 21.1652C78.0149 21.5701 76.2215 26.9456 74.6209 31.4051C74.1629 32.6779 73.6856 33.9459 73.2276 35.2186C72.8564 36.2552 72.3502 37.2917 71.4968 37.9811C71.1112 38.2945 70.6435 38.5307 70.1469 38.5596C68.7151 38.6368 68.2956 37.147 68.4788 36.0045C68.5174 35.7634 68.5753 35.5079 68.6572 35.2331C69.8239 31.4148 75.7587 20.7747 75.9274 19.5549C76.1347 18.0363 67.6785 18.5907 66.7047 19.3958C66.5263 19.5453 66.3769 19.7285 66.2563 19.9262C65.7067 20.8325 65.7453 21.9317 65.5573 22.9441C65.5573 22.9538 65.5573 22.9634 65.5573 22.9731C65.1427 26.0104 64.9836 29.0862 64.8968 32.1428C64.863 33.377 64.8438 34.6112 64.8679 35.8454C64.8968 37.2145 64.6895 39.196 62.9442 39.3647C62.0764 39.4467 61.2376 38.8392 61.1846 37.3206C61.0206 32.3645 61.8113 27.2638 62.4332 22.356C62.4332 22.3512 62.4332 22.3463 62.4332 22.3415C62.6019 21.0302 63.3926 19.015 61.7149 18.5618C60.042 18.1134 57.9159 18.6245 56.2815 19.0294C55.9489 19.1114 55.6355 19.256 55.3414 19.4537C53.5817 20.63 52.6078 23.7541 53.5913 27.7218C53.9192 29.0428 54.2904 30.3156 54.6231 31.5835L54.6086 31.5787ZM77.0025 46.5578C76.9109 47.3726 75.5562 47.6859 74.1774 47.5317C74.0858 47.522 73.9893 47.5076 73.8977 47.4931C73.8929 47.4931 73.8833 47.4931 73.8785 47.4931C73.7917 47.4786 73.7049 47.4642 73.6229 47.4449C73.6085 47.4449 73.5988 47.4401 73.5844 47.4352C73.5072 47.4208 73.4253 47.4015 73.3481 47.3822C73.3289 47.3822 73.3144 47.3726 73.2951 47.3677C73.2228 47.3485 73.1505 47.3292 73.083 47.3051C73.0589 47.3002 73.0396 47.2906 73.0203 47.2858C72.9576 47.2665 72.8901 47.2424 72.8275 47.2183C72.8034 47.2086 72.7793 47.199 72.7551 47.1894C72.6973 47.1653 72.6394 47.1412 72.5816 47.117C72.5575 47.1074 72.5286 47.0929 72.5044 47.0833C72.4514 47.0592 72.4032 47.0351 72.3502 47.0062C72.3212 46.9917 72.2971 46.9772 72.2682 46.9628C72.22 46.9387 72.1766 46.9097 72.1332 46.8808C72.1043 46.8664 72.0802 46.8471 72.0513 46.8278C72.0079 46.7989 71.9693 46.7699 71.9307 46.741C71.9066 46.7217 71.8777 46.7024 71.8536 46.6831C71.815 46.6542 71.7813 46.6253 71.7475 46.5915C71.7234 46.5723 71.6993 46.5482 71.6752 46.5289C71.6415 46.4999 71.6126 46.4662 71.5836 46.4325C71.5643 46.4083 71.5402 46.3842 71.5209 46.3601C71.4968 46.3264 71.4727 46.2926 71.4486 46.2589C71.4294 46.2348 71.4101 46.2107 71.3956 46.1818C71.3763 46.148 71.357 46.1094 71.3377 46.0709C71.3233 46.0419 71.3088 46.0178 71.2992 45.9889C71.2799 45.9503 71.2703 45.907 71.2558 45.8684C71.2461 45.8395 71.2365 45.8154 71.2317 45.7864C71.222 45.743 71.2124 45.69 71.2076 45.6466C71.2076 45.6225 71.1979 45.5984 71.1979 45.5743C71.1931 45.502 71.1931 45.4248 71.1979 45.3477C71.2028 45.2561 71.222 45.179 71.2461 45.1018C71.251 45.0777 71.2606 45.0584 71.2703 45.0343C71.2895 44.9813 71.3136 44.9283 71.3377 44.8801C71.3474 44.8608 71.3619 44.8415 71.3715 44.8222C71.4052 44.7692 71.4438 44.7161 71.492 44.6728C71.4968 44.6679 71.5017 44.6583 71.5065 44.6535C71.5595 44.6004 71.6174 44.5571 71.68 44.5185C71.6993 44.5088 71.7186 44.4992 71.7379 44.4847C71.7861 44.4558 71.8391 44.4317 71.8922 44.4076C71.9163 44.398 71.9356 44.3883 71.9597 44.3787C72.0223 44.3546 72.085 44.3353 72.1573 44.3208C72.1718 44.3208 72.1863 44.3112 72.2007 44.3112C72.2827 44.2919 72.3743 44.2774 72.4611 44.2678C72.4852 44.2678 72.5093 44.2678 72.5334 44.263C72.6057 44.2581 72.678 44.2533 72.7503 44.2533C72.7793 44.2533 72.8082 44.2533 72.8419 44.2533C72.9191 44.2533 73.001 44.2533 73.083 44.263C73.1023 44.263 73.1264 44.263 73.1457 44.263C73.2469 44.2726 73.353 44.2823 73.459 44.3015C73.4783 44.3015 73.5024 44.3064 73.5217 44.3112C73.6085 44.3256 73.6953 44.3401 73.782 44.3594C73.811 44.3642 73.8447 44.3739 73.8736 44.3787C73.9604 44.398 74.0472 44.4172 74.134 44.4413C74.1581 44.4462 74.1822 44.451 74.2063 44.4606C74.3172 44.4896 74.4281 44.5233 74.5341 44.5571C74.5486 44.5571 74.5582 44.5667 74.5727 44.5715C74.6691 44.6053 74.7607 44.639 74.8571 44.6728C74.8861 44.6824 74.915 44.6969 74.9391 44.7065C75.0211 44.7403 75.103 44.774 75.185 44.8077C75.2091 44.8174 75.2332 44.827 75.2525 44.8367C75.3537 44.8849 75.4549 44.9331 75.5562 44.9813C76.4288 45.4297 77.07 46.0227 77.0073 46.553L77.0025 46.5578ZM59.8298 62.0672C59.7093 62.0479 59.5888 62.0238 59.4682 61.9949C59.449 61.9949 59.4345 61.9853 59.4152 61.9804C59.2995 61.9515 59.1886 61.9178 59.0729 61.8792C59.0633 61.8792 59.0585 61.8792 59.0488 61.8744C58.8029 61.7876 58.5571 61.6815 58.3208 61.5562C58.3015 61.5465 58.2871 61.5369 58.2678 61.5273C58.1666 61.4742 58.0701 61.4164 57.9689 61.3537C57.9496 61.3441 57.9351 61.3344 57.9159 61.3199C57.6941 61.1801 57.4868 61.021 57.2891 60.8523C57.2698 60.8378 57.2506 60.8186 57.2313 60.7993C57.1541 60.7318 57.0818 60.6595 57.0143 60.592C56.9902 60.5679 56.9709 60.5486 56.9468 60.5245C56.8745 60.4473 56.8022 60.3654 56.7395 60.2882C56.7299 60.2738 56.7154 60.2641 56.7058 60.2497C56.6335 60.1532 56.5611 60.0568 56.4985 59.9604C56.484 59.9363 56.4744 59.917 56.4599 59.8929C56.4117 59.8158 56.3683 59.7386 56.3297 59.6615C56.3153 59.6277 56.296 59.5988 56.2815 59.5651C56.2478 59.4879 56.214 59.4108 56.1851 59.3337C56.1755 59.3047 56.1658 59.2806 56.1562 59.2517C56.1224 59.1456 56.0935 59.0396 56.0742 58.9335C56.0742 58.9142 56.0742 58.8949 56.0694 58.8757C56.0549 58.7889 56.0453 58.6973 56.0453 58.6105C56.0453 58.5768 56.0453 58.543 56.0453 58.5093C56.0453 58.4321 56.0549 58.355 56.0646 58.273C56.0646 58.2393 56.0742 58.2055 56.079 58.1718C56.0983 58.0609 56.1224 57.9548 56.161 57.8439C56.1899 57.7572 56.2237 57.68 56.2622 57.6029C56.2719 57.5788 56.2863 57.5595 56.3008 57.5354C56.3297 57.4872 56.3586 57.4342 56.3924 57.3908C56.4069 57.3667 56.4261 57.3426 56.4454 57.3233C56.4792 57.2799 56.5129 57.2413 56.5515 57.2027C56.5708 57.1835 56.5901 57.1642 56.6093 57.1449C56.6527 57.1063 56.6961 57.0678 56.7395 57.034C56.7588 57.0195 56.7733 57.0051 56.7877 56.9954C56.8504 56.952 56.9179 56.9087 56.9902 56.8701C56.995 56.8701 57.0047 56.8653 57.0095 56.8604C57.0722 56.8267 57.1397 56.7978 57.2072 56.7737C57.2313 56.764 57.2554 56.7592 57.2795 56.7496C57.3325 56.7303 57.3904 56.7158 57.4434 56.7014C57.4723 56.6965 57.5012 56.6869 57.5302 56.6821C57.5832 56.6676 57.6411 56.6628 57.6941 56.6531C57.723 56.6531 57.7519 56.6435 57.7857 56.6435C57.8484 56.6339 57.911 56.6339 57.9785 56.629C58.0026 56.629 58.0267 56.629 58.0508 56.629C58.1376 56.629 58.2292 56.629 58.316 56.629C58.3449 56.629 58.3787 56.6339 58.4076 56.6339C58.4703 56.6339 58.5281 56.6435 58.5908 56.6483C58.6342 56.6531 58.6776 56.658 58.7162 56.6676C58.7644 56.6772 58.8174 56.6821 58.8656 56.6917C58.9138 56.7014 58.962 56.711 59.0054 56.7206C59.0488 56.7303 59.097 56.7399 59.1404 56.7544C59.1934 56.7688 59.2417 56.7785 59.2947 56.793C59.3284 56.8026 59.367 56.8171 59.4056 56.8267C59.6177 56.8894 59.8347 56.9713 60.042 57.0629C60.0564 57.0726 60.0757 57.0774 60.0902 57.0822C60.1577 57.116 60.23 57.1449 60.2975 57.1835C60.3119 57.1931 60.3312 57.2027 60.3457 57.2076C60.418 57.2413 60.4855 57.2799 60.5578 57.3185C60.5675 57.3233 60.5771 57.3281 60.5867 57.3329C61.4545 57.8295 62.1777 58.5382 62.4573 59.3385C62.6261 59.8254 62.6357 60.3509 62.4043 60.8716C61.9366 61.9322 60.9049 62.2408 59.8057 62.072L59.8298 62.0672ZM50.6794 64.6127C51.5569 63.152 54.4977 64.6706 54.8834 66.3435C54.9268 66.5364 54.9364 66.734 54.9075 66.9269C54.8786 67.1197 54.8063 67.3125 54.6857 67.4958C53.413 69.4579 49.5995 66.411 50.6794 64.6127ZM40.478 59.7001C38.9208 61.7105 31.1444 57.492 33.1596 54.8356C35.1748 52.1792 43.0525 56.3735 40.478 59.7001ZM52.7139 45.4152C54.5749 45.3043 56.7154 49.7108 53.9819 50.5063C51.6485 51.186 50.853 45.5261 52.7139 45.4152Z" fill="var(--fill-0, #E9E2D1)" fill-opacity="0.5"/>
<path id="Vector_3" d="M116.598 96.9327C116.608 96.9472 116.617 96.9665 116.622 96.981C116.632 96.9713 116.641 96.9665 116.646 96.9617C116.627 96.952 116.612 96.9423 116.593 96.9327H116.598Z" fill="var(--fill-0, #F7A9AE)"/>
<path id="Vector_4" d="M160.127 95.0428C159.983 94.4016 159.462 93.799 158.802 93.7749C158.763 93.7749 158.729 93.7749 158.695 93.7749C157.76 93.8231 157.249 94.9416 156.95 95.8624C154.843 102.323 151.136 108.171 146.802 113.406C142.468 118.642 137.497 123.309 132.541 127.956C131.124 129.287 129.706 130.618 128.289 131.943C127.976 132.237 127.185 133.25 126.626 132.912C126.177 132.642 126.467 131.129 126.394 130.632C126.211 129.398 126.23 128.13 126.158 126.881C126.592 125.739 127.262 124.717 127.966 123.743C128.554 122.928 129.084 122.108 129.523 121.207C131.071 118.035 133.158 115.098 135.501 112.461C136.277 111.584 136.991 110.653 137.791 109.805C138.36 109.207 138.9 108.595 139.397 107.934C140.202 106.859 140.935 105.712 141.923 104.801C143.398 103.431 144.584 101.836 145.765 100.235C147.178 98.3211 148.523 96.3541 149.998 94.4836C151.43 92.6708 152.515 90.646 153.575 88.6067C154.135 87.5267 158.291 78.8777 156.579 78.9934C154.839 79.1139 154.13 82.5707 153.662 83.9013C152.929 85.9984 152.033 87.6906 150.803 89.513C149.487 91.4656 147.809 93.1578 146.103 94.7873C144.064 96.7302 142.174 98.8177 140.101 100.717C135.906 104.56 133.501 109.829 130.955 114.804C130.227 116.227 129.489 117.639 128.752 119.057C128.395 119.741 128.082 120.44 127.739 121.13C127.474 121.655 127.06 122.778 126.534 123.048C126.462 123.087 126.423 121.216 126.423 121.053C126.423 118.83 126.235 116.617 126.279 114.395C126.293 113.565 126.332 112.741 126.399 111.917C126.467 111.111 126.703 110.258 126.703 109.458C126.925 108.122 127.243 106.806 127.681 105.529C128.101 104.304 128.737 103.166 129.109 101.932C129.181 101.691 129.364 101.479 129.499 101.262C129.909 100.602 130.319 99.9362 130.738 99.2805C134.137 93.9773 138.326 89.0068 142.473 84.2773C143.562 83.0335 144.44 81.645 145.442 80.3433C146.05 79.5575 146.624 78.7331 147.106 77.8653C149.309 73.9072 149.338 68.9511 149.974 64.5398C150.046 64.0481 149.863 62.9103 149.092 63.4454C148.754 63.6769 148.644 64.4771 148.513 64.8484C148.301 65.4462 148.089 66.0392 147.877 66.637C146.913 69.3561 146.156 72.2825 144.695 74.7653C143.625 76.5877 142.285 78.2269 141.113 79.9866C138.707 83.5011 136.369 87.0543 134.084 90.6508C131.977 93.9677 128.959 97.6124 127.706 101.358C127.17 101.768 127.339 102.646 126.645 103.027C126.409 102.511 126.51 102.033 126.5 101.575C126.467 100.071 126.693 98.5911 126.9 97.111C127.007 96.9809 127.161 96.8652 127.214 96.7157C127.836 94.9801 128.482 93.259 129.036 91.5041C129.759 89.2286 130.348 86.9 131.273 84.6919C132.85 80.9315 134.127 77.0216 134.662 72.9719C134.928 70.9567 134.87 68.9463 134.985 66.9311C135.111 64.6845 135.231 62.4378 135.318 60.1912C135.342 59.5211 135.366 58.8509 135.381 58.1808C135.487 53.6394 134.817 49.339 134.498 44.8602C134.494 44.7782 134.445 44.6963 134.417 44.6191C134.277 44.2479 134.031 44.0406 133.78 44.0888C133.443 44.1515 133.25 44.3684 133.211 44.7011C133.192 44.865 133.25 45.0337 133.274 45.2025C133.124 45.4291 133.11 45.6846 133.081 45.9449C131.943 57.0623 130.376 68.1508 129.446 79.2827C129.359 80.3481 129.379 81.4088 129.181 82.4791C128.949 83.7036 128.969 84.9764 128.892 86.225C128.882 86.3456 128.954 86.4709 128.993 86.5963V86.6107C128.877 86.6927 128.863 86.7939 128.93 86.9145C128.631 88.6356 127.845 90.2988 127.252 91.9284C127.185 92.1212 127.05 92.3526 126.847 92.3141C126.655 92.2803 126.606 92.0248 126.602 91.8271C126.524 88.3029 126.737 84.5521 126.163 81.0713C126.192 80.946 126.221 80.8206 126.25 80.6953C126.25 80.6953 126.25 80.6953 126.25 80.7001C126.327 80.6037 126.452 80.5169 126.471 80.406C127.031 77.6869 127.363 74.9244 127.566 72.1571C127.739 69.7562 127.754 67.3505 127.715 64.9448C127.643 60.5817 127.262 56.2283 126.582 51.9182C125.898 47.5793 124.765 43.3222 123.468 39.1327C122.817 37.0356 122.128 34.948 121.429 32.8653C121.269 32.3929 120.966 30.4982 120.296 30.5319C119.833 30.556 119.78 31.2454 119.732 31.5926C119.688 31.9204 119.698 32.253 119.664 32.5809C119.5 34.2731 119.481 35.9846 119.471 37.6816C119.437 42.1893 119.572 46.7018 119.736 51.2095C119.838 53.9672 120.117 56.7586 120.103 59.5163C120.093 62.2787 120.493 65.0219 120.869 67.7507C121.231 70.3781 121.655 73.0105 122.354 75.5801C122.836 77.335 123.535 79.0127 124.181 80.7097C125.15 83.2456 124.77 85.8731 124.909 88.5054C124.938 89.0454 124.986 89.5853 125.011 90.1253C125.015 90.2699 124.933 91.2004 124.953 91.2149C123.854 90.2506 123.126 88.2113 122.417 86.9C121.539 85.2753 120.686 83.6361 119.862 81.9825C118.247 78.7524 116.738 75.4692 115.33 72.1475C112.514 65.4944 110.118 58.6677 108.166 51.7157C108.021 51.1951 107.732 50.5587 107.187 50.5683C106.556 50.5828 106.363 51.4313 106.377 52.0629C106.551 60.0851 108.937 67.9387 112.322 75.2137C114.284 79.4321 116.579 83.4867 118.999 87.4544C120.214 89.4407 121.457 91.4077 122.716 93.3651C123.28 94.2473 123.868 95.0765 124.244 96.0456C124.418 96.4939 125.363 98.2536 125.271 98.5767C125.189 98.8659 125.025 99.1552 125.04 99.4396C125.107 100.847 125.131 102.289 125.16 103.687C124.514 104.024 123.174 102.154 122.884 101.72C120.681 98.3693 118.95 94.7632 116.333 91.6921C113.638 88.5295 111.246 85.1162 108.421 82.0644C108.079 81.698 107.732 81.3316 107.375 80.9749C105.476 79.0657 103.436 77.2144 101.334 75.4933C100.278 74.6255 99.2275 73.7481 98.1475 72.9189C97.4919 72.4175 96.8699 71.8775 96.1805 71.4195C95.9636 71.2749 95.2356 70.5806 95.0042 70.9229C94.7439 71.3183 95.4477 72.0414 95.6599 72.3162C96.1612 72.9622 96.6626 73.6179 97.1351 74.288C97.5208 74.8376 98.0704 75.2474 98.4898 75.7729C99.0394 76.4624 99.589 77.1518 100.143 77.8412C102.303 80.541 104.473 83.236 106.565 85.9888C108.701 88.7995 110.759 91.1763 113.348 93.5579C116.198 96.1854 118.926 98.9816 121.072 102.226C124.133 106.859 125.941 112.596 124.736 118.02C121.978 114.125 119.225 110.229 116.468 106.334C115.315 104.709 114.317 102.983 113.175 101.349C110.755 97.8824 107.443 95.173 104.666 92.0103C103.036 90.1542 101.517 88.2113 99.994 86.2781C99.0828 85.121 98.244 83.9109 97.381 82.7201C97.1496 82.4019 96.9326 82.0886 96.5228 81.9728C96.0745 81.8427 95.7177 82.1319 95.8093 82.5803C95.8816 82.9226 96.0407 83.2119 96.2384 83.5108C97.3858 85.2415 98.4947 87.0012 99.6372 88.7368C100.375 89.8553 101.151 90.9545 101.918 92.0537C101.985 92.1501 102.125 92.2032 102.226 92.2803C105.678 97.8053 109.569 103.634 114.303 108.146C115.045 109.376 115.981 110.451 116.945 111.497C119.543 114.303 121.631 117.485 123.791 120.619C124.471 121.602 124.659 122.653 124.61 123.81C124.553 125.141 124.389 126.457 124.475 127.812C124.591 129.595 124.798 131.143 124.548 132.912C115.147 119.548 105.75 106.184 96.3493 92.8203C95.819 92.0682 94.8837 91.2245 94.1219 91.7452C93.4084 92.2321 93.7459 93.3361 94.1605 94.093C98.8996 102.79 104.352 111.097 110.436 118.907C113.517 122.86 116.757 126.688 120.156 130.376C121.544 131.885 123.622 133.423 124.543 135.265C125.42 137.02 125.136 139.252 126.028 141.002C126.018 141.046 125.999 141.089 126.009 141.128C126.457 143.726 126.804 146.532 128.062 148.889C128.66 150.013 129.378 151.17 129.658 149.458C129.827 148.427 128.761 146.845 128.54 145.823C127.99 143.331 127.46 140.829 126.915 138.336C126.573 136.769 127.72 135.545 128.66 134.46C130.511 132.319 132.348 130.049 134.653 128.332C137.193 126.438 139.71 124.533 142.125 122.475C142.429 122.219 142.728 121.959 143.032 121.699C144.314 120.58 145.573 119.428 146.787 118.237C151.498 113.618 155.634 108.301 158.199 102.221C158.912 100.524 159.505 98.7743 159.963 96.9857C160.127 96.3493 160.272 95.6792 160.127 95.038V95.0428Z" fill="var(--fill-0, #F7A9AE)"/>
<path id="Vector_5" d="M324.092 66.8877C324.092 66.8877 324.112 66.9215 324.116 66.936C324.126 66.9263 324.136 66.9215 324.145 66.9167C324.126 66.907 324.112 66.8973 324.092 66.8877Z" fill="var(--fill-0, #F1ECE1)" fill-opacity="0.5"/>
<path id="Vector_6" d="M262.25 82.9847C253.061 80.1017 246.909 82.5315 244.494 83.8573C244.33 82.2808 244.219 80.7525 244.147 79.2773C252.781 80.714 259.574 79.6244 263.985 78.7229C264.082 78.7036 264.178 78.6843 264.275 78.665C266.005 78.3082 267.784 77.7201 269.568 77.9177C270.884 78.0624 271.776 77.3585 270.291 76.8475C268.994 76.4039 267.524 76.3027 266.174 76.1484C262.013 75.6808 257.829 75.4783 253.649 75.2517C248.905 74.9962 245.921 76.6401 244.388 77.8551C244.368 77.8695 244.349 77.8888 244.33 77.9033C244.301 77.9274 244.272 77.9515 244.243 77.9756C244.209 78.0045 244.18 78.0286 244.151 78.0527C244.137 78.0672 244.122 78.0768 244.108 78.0913C244.012 75.2131 244.074 72.5422 244.253 70.0835C251.918 73.7716 261.208 72.7881 269.096 70.3294C269.742 70.1269 270.701 70.0304 271.198 69.5242C271.829 68.883 271.342 68.6082 270.566 68.6805C269.028 68.8252 263.416 69.4085 255.158 67.9236C249.387 66.8823 245.911 68.1261 244.339 68.965C244.508 67.0317 244.744 65.2383 245.019 63.5943C245.067 63.2954 245.12 63.0061 245.173 62.7169C245.39 62.8229 245.607 62.9242 245.824 63.0206C252.338 65.9566 258.427 65.6143 261.96 65.1226C266.762 64.4525 268.739 65.4649 269.163 65.1081C269.178 65.0985 269.187 65.084 269.202 65.0696C269.207 65.0599 269.216 65.0503 269.226 65.0358C269.505 64.573 268.671 63.8209 259.545 62.0757C252.198 60.6679 247.121 61.6659 245.284 62.1576C245.622 60.3979 246.007 58.7539 246.422 57.2449C247.058 57.5438 247.7 57.7994 248.336 58.0067C248.62 58.0983 248.91 58.1851 249.194 58.2622C249.339 58.3008 249.479 58.3393 249.623 58.3731C250.607 58.6093 251.581 58.7539 252.535 58.8166C252.554 58.8166 252.574 58.8166 252.593 58.8166C259.188 59.2553 264.733 56.0734 265.181 55.9047C265.774 55.6781 265.629 54.9983 264.882 55.1092C264.13 55.2249 262.153 54.4969 257.178 54.6849C253.278 54.8296 248.486 56.112 246.596 56.6616C247.213 54.5066 247.878 52.6215 248.519 51.0209C254.628 53.4507 260.032 53.1711 263.489 52.5155C263.59 52.4962 263.686 52.4769 263.788 52.4576C263.86 52.4431 263.937 52.4287 264.009 52.4142C264.921 52.2214 265.861 52.1008 266.733 51.773C267.485 51.4934 268.729 50.4617 267.109 50.7365C265.774 50.9631 263.527 50.5726 258.012 49.6662C253.885 48.9864 250.289 49.9555 248.741 50.481C249.112 49.5891 249.508 48.702 249.932 47.8342C250.433 46.8121 250.433 46.6723 251.585 46.7061C255.192 46.8169 258.639 45.6502 261.551 43.5627C263.349 42.2707 265.306 39.73 267.534 39.2141C268.04 39.0984 267.365 38.2643 263.469 39.0405C260.21 39.6914 255.886 40.7231 251.812 44.4643C251.947 44.2039 251.937 43.8954 251.793 43.6543C251.802 43.6543 251.807 43.6447 251.817 43.6399C251.822 43.6399 251.827 43.6302 251.836 43.6302C251.904 43.5868 251.971 43.5434 252.043 43.5C252.053 43.4952 252.058 43.4904 252.068 43.4856C256.705 40.5061 260.48 35.902 261.739 30.4638C261.859 29.9432 260.345 31.0134 259.304 31.4329C255.944 32.7972 250.925 36.7168 250.824 43.2831C250.65 43.3361 250.496 43.4422 250.385 43.6013C250.366 43.6254 250.313 43.7073 250.221 43.8423C250.597 36.1672 245.651 31.7173 245.752 28.087C245.819 25.6283 245.12 26.3756 245.12 26.3756C243.067 36.4998 247.401 43.3217 249.18 45.6117C248.712 46.4698 248.148 47.5931 247.541 48.9768C247.512 48.8611 247.478 48.7454 247.444 48.6297C247.415 48.5236 247.381 48.4175 247.348 48.3115C247.295 48.1379 247.246 47.9692 247.189 47.7956C244.368 39.2189 236.814 35.2271 235.801 34.4846C234.683 33.665 233.969 32.7635 233.54 33.5879C233.145 34.34 235.174 36.1334 235.575 36.5721C239.533 40.94 243.115 45.6165 247.131 49.9314C246.499 51.4596 245.844 53.2579 245.226 55.3165C245.222 55.2972 245.217 55.2828 245.207 55.2635C242.03 46.735 234.283 37.9076 232.436 36.5818C231.486 35.8972 231.289 35.0776 230.787 35.3813C230.763 35.3958 230.739 35.4103 230.71 35.4344C230.165 35.8586 231.617 38.9827 231.79 39.4069C232.995 42.3815 234.601 45.1971 236.471 47.8053C239.836 52.4962 243.356 55.2587 244.923 56.3579C244.513 57.809 244.127 59.3807 243.785 61.0729C239.041 53.4604 227.384 47.9161 226.54 47.3376C225.648 46.7253 224.597 45.7033 224.64 46.5952C224.679 47.3424 225.73 48.2633 226.178 48.7743C227.422 50.1869 228.762 51.5127 230.112 52.8192C231.298 53.9666 232.508 55.0947 233.738 56.2036C237.325 59.4385 241.712 61.338 243.592 62.0564C243.52 62.4372 243.452 62.8229 243.385 63.2134C243.115 64.814 242.879 66.5544 242.705 68.4298C237.156 58.8841 222.047 52.1635 221.536 51.9369C221.058 51.7248 220.046 50.6545 219.737 51.2668C219.728 51.2861 219.718 51.3102 219.708 51.3343C219.708 51.3343 219.708 51.3439 219.708 51.3488C219.699 51.3729 219.694 51.397 219.689 51.4211C219.689 51.4307 219.689 51.4355 219.684 51.4404C219.68 51.4741 219.67 51.5079 219.665 51.5464C219.554 52.4335 228.594 61.0632 233.666 64.7803C237.542 67.6151 241.138 68.9457 242.628 69.4133C242.922 69.5242 242.58 73.0292 242.565 73.3618C242.531 74.3067 242.498 75.2565 242.464 76.2014C242.44 76.9005 242.189 77.6911 242.44 78.3661C240.42 76.1918 238.323 73.9644 236.761 71.4286C234.259 67.3644 227.36 63.2327 218.171 60.0026C217.578 59.7953 227.485 73.8198 242.464 78.8723C242.531 80.4922 242.652 82.1699 242.826 83.9103C235.517 75.3626 216.98 69.3844 216.054 68.8204C215.316 68.372 214.434 67.779 214.082 67.9092C214.073 67.9092 214.063 67.914 214.053 67.9188C214.039 67.9236 214.029 67.9333 214.02 67.9429C214.005 67.9526 213.991 67.967 213.981 67.9863C213.976 67.996 213.971 68.0056 213.962 68.0152C213.952 68.0345 213.942 68.0586 213.938 68.0827C213.938 68.0924 213.933 68.102 213.933 68.1117C213.928 68.1454 213.923 68.184 213.923 68.2274C213.938 69.0421 223.189 76.6016 230.059 80.0197C235.821 82.8883 241.278 84.1466 242.888 84.4744C243.134 86.721 243.472 89.0641 243.93 91.4987C235.589 83.0666 215.77 79.4846 213.354 78.3516C211.354 77.4115 210.481 77.831 210.987 78.2986C210.987 78.2986 210.987 78.2986 210.997 78.3034C211.016 78.3179 211.031 78.3323 211.055 78.3516C211.059 78.3516 211.064 78.3613 211.069 78.3661C211.088 78.3806 211.108 78.395 211.127 78.4047C211.137 78.4095 211.146 78.4143 211.151 78.4239C211.17 78.4384 211.194 78.4481 211.214 78.4625C211.223 78.4673 211.238 78.477 211.247 78.4818C211.272 78.4914 211.296 78.5059 211.32 78.5156C211.334 78.5204 211.349 78.53 211.363 78.5348C211.387 78.5445 211.416 78.5589 211.445 78.5686C211.46 78.5734 211.474 78.583 211.489 78.5879C211.532 78.6071 211.58 78.6216 211.628 78.6409C212.612 78.9784 213.533 79.8413 214.357 80.444C215.991 81.6348 217.616 82.8401 219.279 83.9923C223.295 86.7837 227.437 89.281 232.161 90.6502C235.309 91.5662 238.53 92.058 241.794 92.2846C241.881 92.2894 241.967 92.2942 242.054 92.3038C242.117 92.3038 242.18 92.3135 242.242 92.3135C242.305 92.3135 242.368 92.3231 242.425 92.3231C243.129 92.3617 243.698 92.381 244.098 92.3906C244.489 94.3528 244.947 96.3777 245.496 98.4555C243.616 97.1297 238.544 94.2033 231.694 95.3652C223.146 96.8164 217.385 96.0161 216.83 96.6428C216.816 96.6573 216.806 96.6717 216.797 96.6862C216.459 97.4383 220.263 97.636 224.491 98.7159C225.465 98.9666 226.463 99.2607 227.437 99.6174C233.294 101.777 240.275 103.479 245.766 99.4728C246.287 101.367 246.875 103.306 247.541 105.292C246.128 104.969 242.758 104.622 237.759 106.748C231.004 109.621 230.353 112.726 228.497 113.435C226.641 114.143 225.585 114.838 225.677 115.464C225.769 116.077 241.148 114.114 247.82 106.107C249.04 109.66 250.51 113.353 252.26 117.176C252.453 117.595 252.95 117.783 253.374 117.59C253.403 117.576 253.432 117.561 253.461 117.542C253.818 117.325 253.967 116.867 253.789 116.477C252.159 112.914 250.78 109.472 249.614 106.15C251.282 106.892 254.473 108.122 258.86 108.965C261.411 109.457 264.077 109.115 266.632 108.797C267.64 108.671 268.662 108.498 269.679 108.469C270.267 108.454 270.875 108.724 271.458 108.638C271.844 108.58 272.842 108.074 272.09 107.659C263.923 103.137 259.569 103.706 256.628 104.463C254.502 105.007 251.094 105.316 249.373 105.441C248.712 103.522 248.129 101.642 247.608 99.8054C251.166 101.623 255.216 102.173 259.169 101.903C260.712 101.797 262.25 101.57 263.764 101.261C265.374 100.934 266.941 100.398 268.604 100.606C269.944 100.77 270.846 101.189 270.947 100.654C271.092 99.8633 267.442 98.388 259.608 97.2551C253.74 96.4066 249.194 97.8481 247.28 98.6291C246.74 96.6284 246.277 94.6806 245.892 92.7859C246.022 92.8293 246.152 92.8679 246.282 92.9065C246.287 92.9065 246.292 92.9065 246.297 92.9065C246.6 92.9981 246.899 93.0849 247.198 93.1716C247.198 93.1716 247.198 93.1716 247.208 93.1716C250.92 94.1985 254.796 94.5987 258.639 94.348C260.355 94.2371 262.042 93.9044 263.735 93.6152C264.993 93.3982 265.755 93.2777 266.902 93.8369C267.789 94.266 268.58 94.9169 269.448 95.3893C270.069 95.7268 271.839 96.5753 271.072 95.129C270.566 94.1792 269.428 93.3693 268.594 92.7329C265.735 90.549 262.23 89.011 258.619 88.7314C252.95 88.2879 247.762 90.7177 245.699 91.8458C245.231 89.4546 244.879 87.1549 244.624 84.9517C248.987 86.21 253.509 86.7258 258.022 87.0633C260.418 87.2417 262.819 87.2465 265.219 87.3863C267.042 87.4924 268.922 87.4442 270.691 87.9649C271.313 88.1481 274.172 90.2067 274.404 89.8788C274.833 89.2762 274.322 86.7596 262.255 82.9751L262.25 82.9847Z" fill="var(--fill-0, #E9E2D1)" fill-opacity="0.5"/>
<path id="Vector_7" d="M160.096 86.9847C169.285 84.1017 175.437 86.5315 177.853 87.8573C178.016 86.2808 178.127 84.7525 178.2 83.2773C169.565 84.714 162.772 83.6244 158.361 82.7229C158.264 82.7036 158.168 82.6843 158.072 82.665C156.341 82.3082 154.562 81.7201 152.778 81.9177C151.462 82.0624 150.57 81.3585 152.055 80.8475C153.352 80.4039 154.822 80.3027 156.172 80.1484C160.333 79.6808 164.517 79.4783 168.697 79.2517C173.441 78.9962 176.425 80.6401 177.959 81.8551C177.978 81.8695 177.997 81.8888 178.016 81.9033C178.045 81.9274 178.074 81.9515 178.103 81.9756C178.137 82.0045 178.166 82.0286 178.195 82.0527C178.209 82.0672 178.224 82.0768 178.238 82.0913C178.335 79.2131 178.272 76.5422 178.094 74.0835C170.428 77.7764 161.138 76.7881 153.251 74.3293C152.605 74.1269 151.645 74.0304 151.149 73.5242C150.517 72.883 151.004 72.6082 151.78 72.6805C153.318 72.8252 158.93 73.4085 167.188 71.9236C172.959 70.8823 176.435 72.1261 178.007 72.965C177.838 71.0317 177.602 69.2383 177.327 67.5943C177.279 67.2954 177.226 67.0061 177.173 66.7169C176.956 66.8229 176.739 66.9242 176.522 67.0206C170.009 69.9566 163.92 69.6143 160.386 69.1226C155.584 68.4525 153.607 69.4649 153.183 69.1081C153.169 69.0985 153.159 69.084 153.144 69.0696C153.14 69.0599 153.13 69.0503 153.12 69.0358C152.841 68.573 153.675 67.8209 162.801 66.0757C170.148 64.6679 175.225 65.6659 177.062 66.1576C176.724 64.3979 176.339 62.7539 175.924 61.2449C175.288 61.5438 174.646 61.7994 174.01 62.0067C173.726 62.0983 173.436 62.1851 173.152 62.2622C173.007 62.3008 172.868 62.3393 172.723 62.3731C171.739 62.6093 170.766 62.7539 169.811 62.8166C169.792 62.8166 169.772 62.8166 169.753 62.8166C163.158 63.2553 157.614 60.0734 157.165 59.9047C156.572 59.6781 156.717 58.9983 157.464 59.1092C158.216 59.2249 160.193 58.4969 165.168 58.6849C169.068 58.8296 173.861 60.112 175.751 60.6616C175.133 58.5066 174.468 56.6215 173.827 55.0209C167.719 57.4508 162.314 57.1711 158.857 56.5155C158.756 56.4962 158.66 56.4769 158.559 56.4576C158.486 56.4431 158.409 56.4287 158.337 56.4142C157.426 56.2214 156.485 56.1008 155.613 55.773C154.861 55.4934 153.617 54.4617 155.237 54.7365C156.572 54.9631 158.819 54.5726 164.334 53.6662C168.461 52.9864 172.058 53.9555 173.605 54.481C173.234 53.5891 172.839 52.702 172.414 51.8342C171.913 50.8121 171.913 50.6723 170.761 50.7061C167.155 50.8169 163.707 49.6502 160.796 47.5627C158.997 46.2707 157.04 43.73 154.813 43.2141C154.306 43.0984 154.981 42.2643 158.877 43.0405C162.136 43.6914 166.46 44.7231 170.534 48.4643C170.399 48.2039 170.409 47.8954 170.553 47.6543C170.549 47.6543 170.539 47.6447 170.529 47.6399C170.524 47.6399 170.52 47.6302 170.51 47.6302C170.443 47.5868 170.375 47.5434 170.303 47.5C170.293 47.4952 170.288 47.4904 170.279 47.4856C165.641 44.5061 161.866 39.902 160.607 34.4638C160.487 33.9432 162.001 35.0134 163.042 35.4329C166.402 36.7972 171.421 40.7168 171.522 47.2831C171.696 47.3361 171.85 47.4422 171.961 47.6013C171.98 47.6254 172.033 47.7073 172.125 47.8423C171.749 40.1672 176.695 35.7173 176.594 32.087C176.527 29.6283 177.226 30.3756 177.226 30.3756C179.28 40.4998 174.945 47.3217 173.166 49.6117C173.634 50.4698 174.198 51.5931 174.806 52.9768C174.835 52.8611 174.868 52.7454 174.902 52.6297C174.931 52.5236 174.965 52.4175 174.998 52.3115C175.051 52.1379 175.1 51.9692 175.158 51.7956C177.978 43.2189 185.532 39.2271 186.545 38.4846C187.663 37.665 188.377 36.7635 188.806 37.5879C189.201 38.34 187.172 40.1334 186.772 40.5721C182.813 44.94 179.231 49.6165 175.215 53.9314C175.847 55.4596 176.503 57.2579 177.12 59.3165C177.125 59.2972 177.129 59.2828 177.139 59.2635C180.316 50.735 188.064 41.9076 189.91 40.5818C190.86 39.8972 191.053 39.0776 191.559 39.3813C191.583 39.3958 191.612 39.4103 191.636 39.4344C192.181 39.8586 190.73 42.9827 190.556 43.4069C189.351 46.3815 187.745 49.1971 185.875 51.8053C182.51 56.4962 178.99 59.2587 177.423 60.3579C177.833 61.809 178.219 63.3807 178.561 65.0729C183.305 57.4604 194.963 51.9161 195.806 51.3376C196.698 50.7253 197.749 49.7033 197.706 50.5952C197.667 51.3424 196.616 52.2633 196.168 52.7743C194.924 54.1869 193.584 55.5127 192.234 56.8192C191.048 57.9666 189.838 59.0947 188.608 60.2036C185.021 63.4385 180.634 65.338 178.754 66.0564C178.826 66.4372 178.894 66.8229 178.961 67.2134C179.231 68.814 179.468 70.5544 179.641 72.4298C185.19 62.8841 200.299 56.1635 200.81 55.9369C201.288 55.7248 202.3 54.6545 202.609 55.2668C202.618 55.2861 202.628 55.3102 202.638 55.3343C202.638 55.3343 202.638 55.3439 202.638 55.3488C202.647 55.3729 202.652 55.397 202.657 55.4211C202.657 55.4307 202.657 55.4355 202.662 55.4404C202.667 55.4741 202.676 55.5079 202.681 55.5464C202.792 56.4335 193.752 65.0632 188.681 68.7803C184.805 71.6151 181.208 72.9457 179.718 73.4133C179.424 73.5242 179.766 77.0292 179.781 77.3618C179.815 78.3067 179.848 79.2565 179.882 80.2014C179.906 80.9005 180.157 81.6911 179.906 82.3661C181.926 80.1966 184.023 77.9645 185.586 75.4286C188.088 71.3644 194.987 67.2327 204.176 64.0026C204.769 63.7953 194.861 77.8198 179.882 82.8723C179.815 84.4922 179.694 86.1699 179.521 87.9103C186.829 79.3626 205.366 73.3844 206.292 72.8204C207.03 72.372 207.912 71.779 208.264 71.9092C208.274 71.9092 208.283 71.914 208.293 71.9188C208.307 71.9236 208.317 71.9333 208.327 71.9429C208.341 71.9526 208.355 71.967 208.365 71.9863C208.37 71.996 208.375 72.0056 208.384 72.0152C208.394 72.0345 208.404 72.0586 208.409 72.0827C208.409 72.0924 208.413 72.102 208.413 72.1117C208.418 72.1454 208.423 72.184 208.423 72.2274C208.409 73.0421 199.157 80.6016 192.287 84.0197C186.526 86.8883 181.068 88.1466 179.458 88.4744C179.212 90.721 178.875 93.0641 178.417 95.4987C186.757 87.0666 206.577 83.4846 208.992 82.3516C210.993 81.4115 211.865 81.831 211.359 82.2986C211.359 82.2986 211.359 82.2986 211.349 82.3034C211.33 82.3179 211.316 82.3323 211.292 82.3516C211.287 82.3516 211.282 82.3613 211.277 82.3661C211.258 82.3806 211.238 82.395 211.219 82.4047C211.21 82.4095 211.2 82.4143 211.195 82.4239C211.176 82.4384 211.152 82.4481 211.132 82.4625C211.123 82.4673 211.108 82.477 211.099 82.4818C211.075 82.4914 211.05 82.5059 211.026 82.5155C211.012 82.5204 210.997 82.53 210.983 82.5348C210.959 82.5445 210.93 82.5589 210.901 82.5686C210.887 82.5734 210.872 82.583 210.858 82.5879C210.814 82.6071 210.766 82.6216 210.718 82.6409C209.734 82.9784 208.813 83.8413 207.989 84.444C206.355 85.6348 204.725 86.8401 203.067 87.9923C199.051 90.7837 194.909 93.281 190.185 94.6502C187.037 95.5662 183.816 96.058 180.552 96.2845C180.466 96.2894 180.379 96.2942 180.292 96.3038C180.229 96.3038 180.167 96.3135 180.104 96.3135C180.041 96.3135 179.979 96.3231 179.921 96.3231C179.217 96.3617 178.648 96.381 178.248 96.3906C177.862 98.3528 177.399 100.378 176.85 102.456C178.73 101.13 183.802 98.2033 190.652 99.3652C199.2 100.816 204.957 100.016 205.516 100.643C205.53 100.657 205.54 100.672 205.55 100.686C205.887 101.438 202.083 101.636 197.855 102.716C196.881 102.967 195.883 103.261 194.909 103.617C189.052 105.777 182.071 107.479 176.58 103.473C176.059 105.367 175.471 107.306 174.806 109.292C176.218 108.969 179.588 108.622 184.588 110.748C191.342 113.621 191.993 116.726 193.849 117.435C195.705 118.143 196.761 118.838 196.669 119.464C196.578 120.077 181.198 118.114 174.526 110.107C173.306 113.66 171.836 117.353 170.086 121.176C169.893 121.595 169.396 121.783 168.972 121.59C168.943 121.576 168.914 121.561 168.885 121.542C168.529 121.325 168.379 120.867 168.557 120.477C170.187 116.914 171.566 113.472 172.733 110.15C171.064 110.892 167.873 112.122 163.486 112.965C160.935 113.457 158.269 113.115 155.714 112.797C154.706 112.671 153.684 112.498 152.667 112.469C152.079 112.454 151.472 112.724 150.888 112.638C150.503 112.58 149.505 112.074 150.257 111.659C158.424 107.137 162.777 107.706 165.718 108.463C167.844 109.007 171.252 109.316 172.974 109.441C173.634 107.522 174.217 105.642 174.738 103.805C171.18 105.623 167.13 106.173 163.177 105.903C161.634 105.797 160.096 105.57 158.583 105.261C156.972 104.934 155.406 104.398 153.742 104.606C152.402 104.77 151.5 105.189 151.399 104.654C151.255 103.863 154.904 102.388 162.738 101.255C168.606 100.407 173.152 101.848 175.066 102.629C175.606 100.628 176.069 98.6806 176.454 96.7859C176.324 96.8293 176.194 96.8679 176.064 96.9065C176.059 96.9065 176.054 96.9065 176.049 96.9065C175.746 96.9981 175.447 97.0848 175.148 97.1716C175.148 97.1716 175.148 97.1716 175.138 97.1716C171.426 98.1985 167.55 98.5987 163.707 98.348C161.991 98.2371 160.304 97.9044 158.612 97.6152C157.353 97.3982 156.592 97.2777 155.444 97.8369C154.557 98.266 153.766 98.9169 152.899 99.3893C152.277 99.7268 150.507 100.575 151.279 99.129C151.785 98.1792 152.923 97.3693 153.757 96.7329C156.616 94.549 160.121 93.011 163.732 92.7314C169.401 92.2879 174.589 94.7177 176.652 95.8458C177.12 93.4546 177.472 91.1549 177.727 88.9517C173.364 90.21 168.842 90.7258 164.329 91.0633C161.933 91.2417 159.532 91.2465 157.132 91.3863C155.309 91.4924 153.429 91.4442 151.66 91.9649C151.038 92.1481 148.179 94.2067 147.947 93.8788C147.518 93.2762 148.029 90.7596 160.096 86.975V86.9847Z" fill="var(--fill-0, #4F5826)"/>
<path id="Vector_8" d="M321.421 77.5281L321.426 77.5182V77.5231L321.421 77.5281Z" fill="var(--fill-0, #F7A9AE)"/>
<path id="Vector_9" d="M280.206 51.7206V51.7352C280.206 51.7352 280.206 51.7303 280.206 51.7255V51.7206Z" fill="var(--fill-0, #F7A9AE)"/>
<path id="Vector_10" d="M312.701 53.6104H312.695C312.695 53.6104 312.695 53.6104 312.701 53.6104Z" fill="var(--fill-0, #F7A9AE)"/>
<path id="Vector_11" d="M140.694 87.3488L140.699 87.3435H140.694V87.3488Z" fill="var(--fill-0, #F1ECE1)" fill-opacity="0.5"/>
<path id="Vector_12" d="M99.4782 61.5459V61.5606C99.4782 61.5606 99.4782 61.5557 99.4782 61.5508V61.5459Z" fill="var(--fill-0, #F1ECE1)" fill-opacity="0.5"/>
<path id="Vector_13" d="M131.973 63.431H131.967C131.967 63.431 131.967 63.431 131.973 63.431Z" fill="var(--fill-0, #F1ECE1)" fill-opacity="0.5"/>
<path id="Vector_14" d="M189.291 25.2866L189.285 25.2918H189.291V25.2866Z" fill="var(--fill-0, #4F5826)"/>
<path id="Vector_15" d="M147.964 60.3262V60.3314V60.3262Z" fill="var(--fill-0, #4F5826)"/>
<path id="Vector_16" d="M375.986 16.0253L375.992 16.0305H375.986V16.0253Z" fill="var(--fill-0, #4F5826)"/>
<path id="Vector_17" d="M395.705 66.4924V66.4976V66.4924Z" fill="var(--fill-0, #4F5826)"/>
<path id="Vector_18" d="M202.35 117.273C202.35 117.273 202.37 117.307 202.375 117.321C202.384 117.311 202.394 117.307 202.399 117.302C202.379 117.292 202.365 117.282 202.346 117.273H202.35Z" fill="var(--fill-0, #4F5826)"/>
<path id="Vector_19" d="M21.719 64.9882C21.7238 65.0075 21.7287 65.022 21.7335 65.0414C21.7432 65.0365 21.7528 65.0317 21.7625 65.0269C21.748 65.0124 21.7287 65.0027 21.7142 64.9882H21.719Z" fill="var(--fill-0, #4F5826)"/>
</g>
</svg>
