<svg preserveAspectRatio="none" width="100%" height="100%" overflow="visible" style="display: block;" viewBox="0 0 415.5 170.666" fill="none" xmlns="http://www.w3.org/2000/svg">
<g id="Isolation_Mode" clip-path="url(#clip0_0_28)">
<path id="Vector" d="M335.551 66.982C333.304 66.9916 331.101 67.1218 328.83 67.8594C327.263 68.3704 323.262 69.9084 324.409 72.2659C325.301 74.1027 330.18 72.8347 334.514 71.2775C336.413 70.5929 338.274 69.8216 340.126 69.0261C341.447 68.4572 342.907 67.3628 344.397 67.3435C346.147 67.3194 346.335 69.5853 346.311 70.8677C346.273 72.8155 345.684 74.8162 344.233 76.1854C342.719 77.6173 340.482 77.6896 338.52 77.6076C335.647 77.4823 332.774 77.328 329.9 77.5015C328.425 77.5883 326.901 77.5546 325.474 77.9981C323.662 78.5622 322.616 80.4569 324.819 81.3199C328.57 82.7855 332.952 80.7799 336.717 80.2303C338.564 79.9603 340.42 79.7385 342.276 79.5602C343.288 79.4637 344.595 79.1648 345.607 79.4011C346.832 79.6855 343.925 85.1526 343.616 85.5913C342.662 86.9605 341.379 88.1754 339.774 88.7202C337.421 89.5205 334.528 88.6527 332.21 88.0886C329.071 87.3221 325.084 85.4997 321.801 86.0831C321.203 86.1891 320.61 86.5218 320.34 87.0666C320.056 87.6547 320.2 88.3827 320.576 88.9131C320.952 89.4434 321.531 89.8049 322.124 90.0701C322.905 90.4172 323.729 90.721 324.558 90.9427C326.468 91.4538 328.425 91.7768 330.377 92.0757C331.313 92.2203 336.105 92.2733 335.96 93.7823C335.849 94.9249 334.369 95.9711 333.487 96.5063C331.231 97.8754 328.893 98.9361 326.448 99.9292C322.543 101.52 317.862 101.718 313.86 100.382C310.77 99.3507 307.492 97.0607 307.559 93.4449C307.569 92.8471 307.675 92.2203 307.878 91.5646C308.393 89.9014 309.044 88.2911 309.276 87.1389C308.022 90.7017 306.793 94.385 305.612 98.1695C305.491 98.5552 305.134 98.8059 304.749 98.8107C304.657 98.8107 304.561 98.8011 304.469 98.7722C303.987 98.6227 303.722 98.1117 303.871 97.6296C304.541 95.4842 305.226 93.3726 305.92 91.2995C305.539 92.4276 304.291 93.0399 303.273 93.469C301.707 94.1343 300.352 94.7851 298.626 94.3705C296.992 93.98 295.434 93.1315 294.041 92.2107C292.325 91.0777 290.666 89.4578 290.16 87.3944C290.141 87.3124 290.121 87.2305 290.146 87.1485C290.199 86.9219 290.488 86.8544 290.719 86.8593C291.307 86.8737 291.867 87.0907 292.411 87.3076C294.35 88.0742 297.893 89.4385 299.619 87.4812C300.771 86.1699 299.715 84.8344 298.279 84.5548C296.336 84.1739 294.335 84.2511 292.363 84.0534C290.391 83.8557 288.357 83.3399 286.906 81.9948C284.404 79.6807 283.907 75.631 284.013 72.4105C284.042 71.4607 284.418 65.0198 286.294 66.8904C288.236 68.8236 290.175 70.7617 292.117 72.6949C293.26 73.8375 295.468 76.5277 297.315 76.3348C299.932 76.0649 299.638 72.073 296.76 70.4097C293.771 68.6838 290.729 66.9289 288.111 64.6582C287.508 64.1327 286.911 63.559 286.573 62.8358C285.527 60.6085 288.222 56.8577 289.331 55.0064C290.271 53.4444 291.553 50.653 293.217 49.708C294.224 49.1391 295.883 53.5504 296.153 54.1C297.329 56.5106 298.312 58.9838 299.378 61.4377C299.431 61.5582 299.421 61.6932 299.47 61.8041C301.007 65.1982 302.974 66.7602 304.551 65.3621C306.123 63.964 305.621 61.2256 303.418 59.0947C300.68 56.4479 298.197 52.6392 297.127 48.9608C297.112 48.9029 297.093 48.8451 297.078 48.792C297.03 48.6136 296.987 48.4401 296.958 48.2762C296.452 45.4317 301.547 43.0646 303.249 42.3511C304.951 41.6375 306.205 41.8448 306.046 45.7258C306.036 45.9042 306.041 46.1019 306.046 46.2995C306.046 46.3333 306.046 46.367 306.046 46.4008C306.055 46.6032 306.07 46.8154 306.089 47.0323C306.089 47.0468 306.089 47.0661 306.094 47.0805C306.142 47.553 306.219 48.0592 306.315 48.5895C307.101 52.7019 309.372 58.0967 311.339 58.5981C311.392 58.6126 311.445 58.6318 311.498 58.6367C313.383 58.8633 314.28 57.7544 314.256 56.1345C314.246 55.5753 314.15 54.8569 313.86 54.37C312.848 52.6344 311.73 50.9663 310.707 49.2307C309.671 47.471 308.109 44.7905 308.697 42.6741C308.977 41.6713 309.309 40.6733 309.835 39.7766C311.325 37.2407 314.883 35.7703 317.727 35.5967C320.234 35.4424 317.457 39.9357 316.719 43.5997C316.449 44.9448 316.541 46.6177 317.761 47.4903C319.062 48.4256 320.947 47.9965 321.642 46.5406C322.534 44.67 322.36 41.9654 322.466 39.9309C322.553 38.2001 322.442 36.0885 323.184 34.4782C324.655 31.2626 330.079 32.2943 332.812 32.0147C334.967 31.7929 336.182 34.1359 337.064 35.7365C337.652 36.802 338.25 37.8626 338.766 38.9618C338.978 39.415 339.788 40.7456 339.494 41.2808C339.21 41.7966 334.48 44.9159 330.58 47.6109C329.466 48.3822 328.367 49.1681 327.253 49.9394C326.347 50.5662 325.479 51.3183 325.031 52.3259C324.828 52.7791 324.722 53.2901 324.824 53.777C325.118 55.18 326.665 55.1992 327.721 54.7316C327.943 54.6352 328.174 54.5098 328.42 54.3604C331.809 52.2487 340.564 43.7733 341.697 43.3008C343.11 42.7078 344.754 51.0242 344.228 52.1716C344.132 52.3837 343.992 52.5717 343.828 52.7405C343.091 53.507 342.02 53.7529 341.095 54.1916C341.085 54.1916 341.075 54.2013 341.066 54.2061C338.241 55.3873 335.309 56.337 332.373 57.2048C331.192 57.5567 330.001 57.8942 328.801 58.1835C327.47 58.5065 325.609 59.22 325.894 60.9508C326.039 61.8089 326.844 62.4646 328.319 62.1223C333.15 61.0038 337.874 58.9259 342.459 57.0602H342.474C343.698 56.554 345.443 55.2716 346.306 56.7757C347.169 58.2751 347.227 60.4639 347.251 62.1464C347.256 62.4887 347.198 62.831 347.087 63.1637C346.408 65.1692 343.635 66.9145 339.547 66.9868C338.183 67.0109 336.862 66.9771 335.551 66.9868V66.982ZM315.307 49.2018C314.54 49.5007 314.588 50.8892 315.09 52.1812C315.124 52.268 315.162 52.3548 315.201 52.4416C315.201 52.4464 315.206 52.456 315.21 52.4609C315.244 52.5428 315.283 52.62 315.321 52.6971C315.326 52.7067 315.336 52.7212 315.341 52.7308C315.379 52.8032 315.413 52.8755 315.456 52.943C315.466 52.9574 315.476 52.9767 315.485 52.9912C315.524 53.0539 315.562 53.1165 315.601 53.1792C315.615 53.1985 315.625 53.2178 315.639 53.2371C315.678 53.2949 315.717 53.3528 315.755 53.4058C315.77 53.4251 315.784 53.4492 315.803 53.4685C315.842 53.5215 315.881 53.5697 315.919 53.6179C315.938 53.642 315.953 53.6613 315.972 53.6854C316.011 53.7288 316.049 53.7722 316.083 53.8156C316.102 53.8397 316.126 53.859 316.146 53.8831C316.184 53.9217 316.223 53.9602 316.261 53.994C316.285 54.0132 316.31 54.0374 316.329 54.0566C316.367 54.0904 316.406 54.1193 316.445 54.1531C316.469 54.1723 316.493 54.1916 316.522 54.2109C316.56 54.2398 316.599 54.2639 316.637 54.2881C316.662 54.3073 316.69 54.3218 316.719 54.3411C316.758 54.3652 316.797 54.3845 316.835 54.4038C316.864 54.4182 316.893 54.4327 316.922 54.4471C316.96 54.4664 316.999 54.4761 317.038 54.4905C317.066 54.5002 317.095 54.5146 317.124 54.5195C317.163 54.5291 317.206 54.5387 317.245 54.5484C317.274 54.5532 317.303 54.5629 317.332 54.5677C317.375 54.5725 317.418 54.5773 317.457 54.5773C317.486 54.5773 317.515 54.5821 317.544 54.5773C317.592 54.5773 317.64 54.5677 317.688 54.5629C317.713 54.5629 317.737 54.5629 317.761 54.5532C317.833 54.5387 317.905 54.5195 317.978 54.4954C318.064 54.4664 318.137 54.4279 318.204 54.3893C318.224 54.3748 318.243 54.3604 318.262 54.3507C318.31 54.317 318.354 54.2832 318.392 54.2447C318.407 54.2302 318.426 54.2109 318.441 54.1964C318.484 54.1482 318.522 54.0952 318.556 54.0422C318.556 54.0374 318.566 54.0277 318.571 54.0229C318.604 53.9602 318.633 53.8927 318.657 53.8204C318.662 53.8011 318.667 53.777 318.677 53.7577C318.691 53.7047 318.701 53.6468 318.71 53.589C318.71 53.5649 318.715 53.5408 318.72 53.5167C318.725 53.4492 318.73 53.3817 318.725 53.3142C318.725 53.2997 318.725 53.2853 318.725 53.2708C318.725 53.184 318.71 53.0972 318.696 53.0056C318.696 52.9815 318.686 52.9574 318.682 52.9333C318.667 52.8658 318.653 52.7935 318.638 52.7212C318.633 52.6923 318.624 52.6633 318.614 52.6344C318.595 52.5573 318.571 52.4801 318.542 52.403C318.537 52.3837 318.527 52.3644 318.522 52.3452C318.489 52.2487 318.45 52.1475 318.407 52.0511C318.397 52.0318 318.387 52.0125 318.383 51.9932C318.349 51.9113 318.31 51.8341 318.267 51.7522C318.252 51.7232 318.238 51.6943 318.224 51.6702C318.185 51.5931 318.142 51.5159 318.098 51.4388C318.089 51.4195 318.074 51.3954 318.064 51.3761C318.007 51.2797 317.949 51.1785 317.886 51.082C317.876 51.0724 317.872 51.0579 317.862 51.0483C317.809 50.9663 317.751 50.8844 317.693 50.8024C317.674 50.7783 317.659 50.7542 317.64 50.7301C317.587 50.6578 317.534 50.5855 317.476 50.518C317.462 50.4987 317.447 50.4794 317.428 50.4601C317.356 50.3733 317.283 50.2866 317.211 50.2046C316.551 49.4766 315.818 49.009 315.316 49.2066L315.307 49.2018ZM304.744 69.7926C304.792 69.9035 304.845 70.0144 304.908 70.1205C304.917 70.1349 304.927 70.1494 304.932 70.1687C304.99 70.2699 305.052 70.376 305.12 70.4724C305.12 70.4772 305.129 70.4869 305.134 70.4917C305.279 70.7087 305.448 70.916 305.626 71.1136C305.641 71.1281 305.655 71.1425 305.669 71.157C305.747 71.239 305.829 71.3209 305.911 71.3981C305.925 71.4125 305.939 71.427 305.954 71.4415C306.147 71.6198 306.354 71.7837 306.566 71.9284C306.585 71.9428 306.61 71.9573 306.629 71.967C306.716 72.02 306.798 72.073 306.884 72.126C306.913 72.1405 306.937 72.155 306.966 72.1743C307.058 72.2225 307.154 72.2707 307.251 72.3141C307.265 72.3189 307.28 72.3285 307.299 72.3382C307.41 72.3864 307.521 72.425 307.632 72.4635C307.656 72.4732 307.685 72.478 307.709 72.4828C307.796 72.5069 307.882 72.531 307.969 72.5503C308.003 72.5599 308.037 72.5648 308.075 72.5696C308.157 72.584 308.244 72.5937 308.326 72.5985C308.355 72.5985 308.384 72.6033 308.413 72.6082C308.524 72.613 308.63 72.6082 308.74 72.6082C308.76 72.6082 308.779 72.6033 308.798 72.5985C308.885 72.5889 308.972 72.5744 309.064 72.5551C309.097 72.5455 309.131 72.5358 309.165 72.5262C309.242 72.5021 309.314 72.478 309.387 72.4491C309.415 72.4346 309.449 72.425 309.478 72.4105C309.579 72.3623 309.676 72.3092 309.772 72.2466C309.849 72.1984 309.917 72.1405 309.979 72.0827C309.999 72.0634 310.018 72.0441 310.037 72.0248C310.081 71.9862 310.119 71.9428 310.153 71.8995C310.172 71.8754 310.187 71.8561 310.206 71.832C310.24 71.7886 310.269 71.7452 310.293 71.7018C310.307 71.6777 310.322 71.6536 310.336 71.6295C310.365 71.5764 310.389 71.5282 310.409 71.4752C310.418 71.4559 310.428 71.4366 310.433 71.4173C310.462 71.345 310.481 71.2679 310.5 71.1908C310.5 71.1859 310.5 71.1763 310.5 71.1667C310.515 71.0992 310.524 71.0268 310.534 70.9497C310.534 70.9256 310.534 70.9015 310.534 70.8726C310.534 70.8147 310.539 70.7569 310.534 70.699C310.534 70.6701 310.534 70.6412 310.534 70.6074C310.534 70.5496 310.524 70.4965 310.519 70.4387C310.519 70.4097 310.515 70.3808 310.51 70.3471C310.5 70.2844 310.491 70.2217 310.476 70.159C310.471 70.1349 310.466 70.1108 310.462 70.0867C310.442 70 310.418 69.918 310.389 69.8312C310.38 69.8023 310.37 69.7734 310.36 69.7444C310.341 69.6866 310.322 69.6287 310.298 69.5709C310.283 69.5323 310.264 69.4937 310.249 69.4503C310.23 69.4021 310.211 69.3587 310.187 69.3105C310.168 69.2671 310.143 69.2238 310.124 69.1804C310.105 69.1418 310.081 69.0984 310.057 69.0598C310.033 69.0116 310.008 68.9682 309.979 68.92C309.96 68.8863 309.941 68.8574 309.922 68.8236C309.806 68.6308 309.671 68.4476 309.531 68.2692C309.521 68.2547 309.512 68.2403 309.497 68.2258C309.449 68.1679 309.401 68.1101 309.348 68.0522C309.333 68.0378 309.324 68.0233 309.309 68.0088C309.256 67.951 309.203 67.8931 309.145 67.8353C309.136 67.8256 309.131 67.8208 309.121 67.8112C308.417 67.1025 307.545 66.5818 306.701 66.5191C306.185 66.4806 305.679 66.6059 305.231 66.9675C304.329 67.6955 304.291 68.7706 304.739 69.7878L304.744 69.7926ZM304.643 79.2854C305.829 78.0608 303.601 75.6117 301.885 75.6695C301.687 75.6744 301.494 75.7178 301.316 75.7949C301.138 75.872 300.974 75.9926 300.824 76.1565C299.257 77.8921 303.182 80.7944 304.643 79.2854ZM312.019 87.8813C310.476 89.9062 316.555 96.3327 318.604 93.6956C320.653 91.0633 314.569 84.5355 312.019 87.8813ZM322.669 72.3767C322.297 70.5496 317.486 69.6191 317.423 72.4635C317.365 74.8933 323.045 74.2039 322.669 72.3767Z" fill="var(--fill-0, #4F5826)"/>
<path id="Vector_2" d="M116.598 96.9327C116.608 96.9472 116.617 96.9665 116.622 96.981C116.632 96.9713 116.641 96.9665 116.646 96.9617C116.627 96.952 116.612 96.9423 116.593 96.9327H116.598Z" fill="var(--fill-0, #F7A9AE)"/>
<path id="Vector_3" d="M185.952 69.2356C185.834 68.7164 185.411 68.2285 184.875 68.209C184.843 68.209 184.816 68.209 184.789 68.209C184.029 68.248 183.614 69.1537 183.371 69.8993C181.66 75.1302 178.648 79.8654 175.128 84.1048C171.607 88.3442 167.57 92.123 163.544 95.8861C162.393 96.9635 161.241 98.041 160.09 99.1145C159.836 99.3526 159.193 100.172 158.739 99.8991C158.375 99.6805 158.61 98.4547 158.551 98.0527C158.402 97.0533 158.418 96.0267 158.359 95.0156C158.712 94.0904 159.256 93.2628 159.828 92.4743C160.306 91.8146 160.736 91.1509 161.093 90.421C162.35 87.8523 164.045 85.475 165.949 83.3397C166.579 82.6292 167.159 81.8758 167.809 81.1887C168.271 80.7047 168.709 80.2089 169.113 79.6741C169.767 78.8036 170.362 77.8745 171.165 77.1367C172.363 76.0281 173.326 74.7359 174.286 73.4399C175.433 71.8901 176.526 70.2974 177.724 68.7828C178.887 67.315 179.768 65.6755 180.63 64.0242C181.084 63.1498 184.46 56.1466 183.07 56.2402C181.656 56.3378 181.08 59.1368 180.7 60.2142C180.105 61.9123 179.377 63.2825 178.378 64.7581C177.309 66.3391 175.946 67.7093 174.56 69.0287C172.903 70.6019 171.368 72.2922 169.684 73.8303C166.277 76.9415 164.323 81.2083 162.256 85.2369C161.664 86.3884 161.065 87.5322 160.466 88.6799C160.176 89.2342 159.922 89.8003 159.644 90.3585C159.428 90.784 159.092 91.6936 158.665 91.9122C158.606 91.9434 158.575 90.4288 158.575 90.296C158.575 88.4964 158.422 86.7046 158.457 84.905C158.469 84.2336 158.5 83.5661 158.555 82.8985C158.61 82.2466 158.802 81.5557 158.802 80.9077C158.982 79.8263 159.24 78.7606 159.597 77.7262C159.937 76.7346 160.454 75.8133 160.756 74.814C160.815 74.6188 160.963 74.4471 161.073 74.2714C161.406 73.7366 161.739 73.1979 162.079 72.667C164.84 68.3729 168.243 64.3482 171.611 60.5187C172.496 59.5115 173.209 58.3873 174.023 57.3333C174.517 56.697 174.983 56.0294 175.374 55.3268C177.164 52.1219 177.188 48.1089 177.705 44.537C177.763 44.1388 177.614 43.2175 176.988 43.6509C176.714 43.8382 176.624 44.4862 176.518 44.7868C176.346 45.2709 176.173 45.751 176.001 46.2351C175.218 48.4368 174.603 50.8063 173.416 52.8167C172.547 54.2923 171.458 55.6196 170.507 57.0444C168.553 59.8902 166.653 62.7672 164.797 65.6794C163.086 68.3651 160.634 71.3163 159.616 74.3495C159.182 74.6813 159.319 75.3918 158.755 75.7001C158.563 75.2825 158.645 74.896 158.637 74.5251C158.61 73.3072 158.794 72.1087 158.962 70.9103C159.048 70.8049 159.174 70.7112 159.217 70.5902C159.722 69.1849 160.247 67.7913 160.697 66.3703C161.285 64.5278 161.762 62.6423 162.514 60.8544C163.795 57.8095 164.832 54.6436 165.267 51.3645C165.483 49.7328 165.436 48.105 165.53 46.4732C165.631 44.6541 165.729 42.835 165.8 41.0159C165.819 40.4732 165.839 39.9306 165.851 39.388C165.937 35.7107 165.392 32.2287 165.134 28.6021C165.13 28.5358 165.091 28.4694 165.067 28.4069C164.954 28.1064 164.754 27.9385 164.551 27.9775C164.276 28.0283 164.12 28.2039 164.088 28.4733C164.073 28.606 164.12 28.7427 164.139 28.8793C164.018 29.0628 164.006 29.2697 163.983 29.4805C163.059 38.4824 161.786 47.4608 161.03 56.4745C160.96 57.3372 160.975 58.196 160.815 59.0626C160.627 60.0542 160.642 61.0847 160.58 62.0958C160.572 62.1934 160.631 62.2949 160.662 62.3964V62.4081C160.568 62.4744 160.556 62.5564 160.611 62.654C160.368 64.0476 159.73 65.3944 159.248 66.7138C159.193 66.87 159.084 67.0574 158.919 67.0261C158.763 66.9988 158.723 66.7919 158.72 66.6319C158.657 63.7783 158.829 60.7412 158.363 57.9227C158.387 57.8212 158.41 57.7197 158.434 57.6183C158.434 57.6183 158.434 57.6183 158.434 57.6222C158.496 57.5441 158.598 57.4738 158.614 57.384C159.068 55.1823 159.338 52.9455 159.503 50.7048C159.644 48.7608 159.655 46.8128 159.624 44.8649C159.565 41.3321 159.256 37.807 158.704 34.3171C158.148 30.8038 157.228 27.3568 156.174 23.9645C155.645 22.2664 155.085 20.5761 154.518 18.8897C154.388 18.5072 154.142 16.973 153.597 17.0004C153.221 17.0199 153.178 17.5781 153.139 17.8592C153.104 18.1246 153.112 18.394 153.084 18.6594C152.951 20.0296 152.936 21.4154 152.928 22.7895C152.9 26.4395 153.01 30.0933 153.143 33.7433C153.225 35.9762 153.452 38.2364 153.441 40.4693C153.433 42.7062 153.758 44.9274 154.063 47.1368C154.357 49.2644 154.702 51.3958 155.269 53.4764C155.661 54.8974 156.229 56.2559 156.754 57.63C157.541 59.6833 157.231 61.8108 157.345 63.9422C157.368 64.3794 157.408 64.8167 157.427 65.2539C157.431 65.371 157.365 66.1244 157.38 66.1361C156.487 65.3554 155.896 63.7041 155.32 62.6423C154.608 61.3268 153.915 59.9995 153.245 58.6605C151.933 56.0451 150.707 53.3866 149.564 50.697C147.277 45.3099 145.331 39.7823 143.745 34.1532C143.627 33.7316 143.392 33.2163 142.95 33.2241C142.437 33.2358 142.28 33.9229 142.292 34.4342C142.433 40.93 144.371 47.2891 147.12 53.1798C148.714 56.5955 150.578 59.8785 152.544 63.0912C153.531 64.6995 154.541 66.2923 155.563 67.8772C156.021 68.5915 156.499 69.263 156.805 70.0476C156.946 70.4106 157.713 71.8355 157.639 72.097C157.572 72.3313 157.439 72.5655 157.451 72.7958C157.506 73.9357 157.525 75.1029 157.549 76.235C157.024 76.5082 155.935 74.9936 155.7 74.6422C153.911 71.9292 152.505 69.0092 150.378 66.5226C148.189 63.9617 146.247 61.1979 143.952 58.7269C143.674 58.4302 143.392 58.1335 143.102 57.8447C141.559 56.2988 139.903 54.7998 138.196 53.4062C137.338 52.7035 136.484 51.993 135.607 51.3216C135.074 50.9156 134.569 50.4784 134.009 50.1076C133.833 49.9904 133.242 49.4283 133.054 49.7055C132.842 50.0256 133.414 50.6111 133.586 50.8336C133.994 51.3567 134.401 51.8876 134.785 52.4302C135.098 52.8753 135.544 53.2071 135.885 53.6326C136.331 54.1908 136.778 54.749 137.228 55.3073C138.983 57.4933 140.745 59.6755 142.444 61.9045C144.179 64.1804 145.851 66.1049 147.954 68.0333C150.269 70.1608 152.485 72.4249 154.228 75.0521C156.715 78.8036 158.183 83.449 157.204 87.8406C154.964 84.6864 152.728 81.5323 150.488 78.3781C149.552 77.0625 148.741 75.665 147.813 74.3417C145.847 71.5349 143.157 69.341 140.902 66.7802C139.578 65.2773 138.344 63.7041 137.107 62.1387C136.367 61.2018 135.685 60.222 134.984 59.2578C134.796 59.0002 134.62 58.7464 134.287 58.6527C133.923 58.5473 133.633 58.7815 133.708 59.1446C133.766 59.4218 133.896 59.656 134.056 59.898C134.988 61.2994 135.889 62.7243 136.817 64.1296C137.416 65.0353 138.047 65.9253 138.669 66.8153C138.724 66.8934 138.838 66.9364 138.92 66.9988C141.724 71.4724 144.884 76.192 148.73 79.8459C149.333 80.8413 150.092 81.7118 150.876 82.5589C152.986 84.8309 154.682 87.4073 156.436 89.9447C156.989 90.7411 157.141 91.5921 157.102 92.529C157.055 93.6064 156.922 94.6721 156.993 95.769C157.087 97.2134 157.255 98.4665 157.051 99.8991C149.415 89.0781 141.783 78.2571 134.146 67.436C133.716 66.8271 132.956 66.1439 132.337 66.5655C131.758 66.9598 132.032 67.8537 132.368 68.4666C136.218 75.5089 140.647 82.2349 145.589 88.5589C148.091 91.7599 150.723 94.8594 153.484 97.8458C154.612 99.0676 156.299 100.313 157.047 101.804C157.76 103.225 157.529 105.032 158.254 106.45C158.246 106.485 158.23 106.52 158.238 106.551C158.602 108.655 158.884 110.927 159.906 112.836C160.392 113.745 160.975 114.682 161.202 113.297C161.339 112.461 160.474 111.181 160.294 110.353C159.847 108.335 159.417 106.309 158.974 104.291C158.696 103.022 159.628 102.031 160.392 101.152C161.895 99.419 163.387 97.5803 165.259 96.1906C167.323 94.6565 169.367 93.1145 171.329 91.4476C171.576 91.2407 171.819 91.0299 172.065 90.8191C173.107 89.9135 174.129 88.9805 175.116 88.0163C178.942 84.2766 182.302 79.9708 184.385 75.0482C184.965 73.6741 185.447 72.2571 185.819 70.8088C185.952 70.2935 186.069 69.7509 185.952 69.2317V69.2356Z" fill="var(--fill-0, #F7A9AE)"/>
<path id="Vector_4" d="M324.092 66.8877C324.092 66.8877 324.112 66.9215 324.116 66.936C324.126 66.9263 324.136 66.9215 324.145 66.9167C324.126 66.907 324.112 66.8973 324.092 66.8877Z" fill="var(--fill-0, #F1ECE1)" fill-opacity="0.5"/>
<path id="Vector_5" d="M280.404 75.7159C271.215 72.8329 265.063 75.2628 262.647 76.5885C262.484 75.0121 262.373 73.4838 262.3 72.0085C270.935 73.4452 277.728 72.3556 282.139 71.4541C282.236 71.4348 282.332 71.4155 282.428 71.3962C284.159 71.0395 285.938 70.4513 287.722 70.649C289.038 70.7936 289.93 70.0897 288.445 69.5787C287.148 69.1352 285.678 69.0339 284.328 68.8796C280.167 68.412 275.983 68.2095 271.803 67.9829C267.059 67.7274 264.075 69.3714 262.541 70.5863C262.522 70.6008 262.503 70.62 262.484 70.6345C262.455 70.6586 262.426 70.6827 262.397 70.7068C262.363 70.7358 262.334 70.7599 262.305 70.784C262.291 70.7984 262.276 70.8081 262.262 70.8225C262.165 67.9443 262.228 65.2735 262.406 62.8147C270.072 66.5028 279.362 65.5193 287.249 63.0606C287.895 62.8581 288.855 62.7617 289.351 62.2555C289.983 61.6143 289.496 61.3395 288.72 61.4118C287.182 61.5564 281.57 62.1398 273.312 60.6549C267.541 59.6135 264.065 60.8574 262.493 61.6962C262.662 59.763 262.898 57.9695 263.173 56.3255C263.221 56.0266 263.274 55.7374 263.327 55.4481C263.544 55.5542 263.761 55.6554 263.978 55.7518C270.491 58.6879 276.58 58.3456 280.114 57.8538C284.916 57.1837 286.893 58.1961 287.317 57.8394C287.331 57.8297 287.341 57.8153 287.356 57.8008C287.36 57.7912 287.37 57.7815 287.38 57.767C287.659 57.3042 286.825 56.5521 277.699 54.8069C270.352 53.3991 265.275 54.3971 263.438 54.8889C263.776 53.1292 264.161 51.4852 264.576 49.9762C265.212 50.2751 265.854 50.5306 266.49 50.7379C266.774 50.8295 267.064 50.9163 267.348 50.9934C267.493 51.032 267.632 51.0706 267.777 51.1043C268.761 51.3405 269.734 51.4852 270.689 51.5479C270.708 51.5479 270.728 51.5479 270.747 51.5479C277.342 51.9866 282.886 48.8047 283.335 48.6359C283.928 48.4093 283.783 47.7296 283.036 47.8404C282.284 47.9561 280.307 47.2282 275.332 47.4162C271.431 47.5608 266.639 48.8432 264.749 49.3928C265.367 47.2378 266.032 45.3528 266.673 43.7522C272.781 46.182 278.186 45.9024 281.643 45.2467C281.744 45.2274 281.84 45.2081 281.941 45.1888C282.014 45.1744 282.091 45.1599 282.163 45.1455C283.074 44.9526 284.015 44.8321 284.887 44.5043C285.639 44.2246 286.883 43.1929 285.263 43.4677C283.928 43.6943 281.681 43.3038 276.166 42.3974C272.039 41.7177 268.442 42.6867 266.895 43.2122C267.266 42.3203 267.661 41.4332 268.086 40.5654C268.587 39.5434 268.587 39.4036 269.739 39.4373C273.345 39.5482 276.793 38.3815 279.704 36.294C281.503 35.0019 283.46 32.4612 285.687 31.9453C286.194 31.8296 285.519 30.9956 281.623 31.7718C278.364 32.4226 274.04 33.4543 269.966 37.1955C270.101 36.9352 270.091 36.6266 269.947 36.3856C269.956 36.3856 269.961 36.3759 269.971 36.3711C269.976 36.3711 269.98 36.3614 269.99 36.3614C270.057 36.3181 270.125 36.2747 270.197 36.2313C270.207 36.2265 270.212 36.2216 270.221 36.2168C274.859 33.2374 278.634 28.6333 279.892 23.1951C280.013 22.6744 278.499 23.7447 277.458 24.1641C274.098 25.5285 269.079 29.448 268.978 36.0143C268.804 36.0674 268.65 36.1734 268.539 36.3325C268.52 36.3566 268.467 36.4386 268.375 36.5736C268.751 28.8984 263.805 24.4486 263.906 20.8183C263.973 18.3595 263.274 19.1068 263.274 19.1068C261.22 29.2311 265.555 36.0529 267.334 38.3429C266.866 39.2011 266.302 40.3244 265.694 41.708C265.665 41.5923 265.632 41.4766 265.598 41.3609C265.569 41.2548 265.535 41.1488 265.502 41.0427C265.449 40.8692 265.4 40.7004 265.342 40.5269C262.522 31.9502 254.968 27.9583 253.955 27.2159C252.837 26.3963 252.123 25.4947 251.694 26.3191C251.299 27.0712 253.328 28.8647 253.728 29.3034C257.687 33.6713 261.269 38.3477 265.285 42.6626C264.653 44.1909 263.997 45.9891 263.38 48.0477C263.375 48.0285 263.371 48.014 263.361 47.9947C260.184 39.4662 252.436 30.6388 250.59 29.313C249.64 28.6284 249.443 27.8089 248.941 28.1126C248.917 28.127 248.893 28.1415 248.864 28.1656C248.319 28.5899 249.77 31.7139 249.944 32.1382C251.149 35.1128 252.755 37.9283 254.625 40.5365C257.99 45.2274 261.51 47.9899 263.077 49.0891C262.667 50.5402 262.281 52.1119 261.939 53.8041C257.195 46.1916 245.537 40.6474 244.694 40.0689C243.802 39.4566 242.751 38.4345 242.794 39.3264C242.833 40.0737 243.884 40.9945 244.332 41.5055C245.576 42.9181 246.916 44.2439 248.266 45.5504C249.452 46.6978 250.662 47.826 251.892 48.9348C255.479 52.1698 259.866 54.0693 261.746 54.7876C261.674 55.1685 261.606 55.5542 261.539 55.9447C261.269 57.5453 261.032 59.2857 260.859 61.1611C255.31 51.6153 240.201 44.8948 239.69 44.6682C239.212 44.456 238.2 43.3858 237.891 43.998C237.882 44.0173 237.872 44.0414 237.862 44.0655C237.862 44.0655 237.862 44.0752 237.862 44.08C237.853 44.1041 237.848 44.1282 237.843 44.1523C237.843 44.162 237.843 44.1668 237.838 44.1716C237.833 44.2053 237.824 44.2391 237.819 44.2777C237.708 45.1647 246.748 53.7945 251.819 57.5115C255.695 60.3463 259.292 61.6769 260.782 62.1446C261.076 62.2555 260.734 65.7604 260.719 66.0931C260.685 67.038 260.652 67.9877 260.618 68.9327C260.594 69.6317 260.343 70.4224 260.594 71.0973C258.574 68.923 256.477 66.6957 254.914 64.1598C252.412 60.0956 245.513 55.964 236.324 52.7338C235.731 52.5265 245.639 66.5511 260.618 71.6035C260.685 73.2234 260.806 74.9012 260.979 76.6416C253.671 68.0938 235.134 62.1157 234.208 61.5516C233.47 61.1032 232.588 60.5102 232.236 60.6404C232.226 60.6404 232.217 60.6452 232.207 60.6501C232.193 60.6549 232.183 60.6645 232.173 60.6742C232.159 60.6838 232.145 60.6983 232.135 60.7175C232.13 60.7272 232.125 60.7368 232.116 60.7465C232.106 60.7658 232.096 60.7899 232.091 60.814C232.091 60.8236 232.087 60.8333 232.087 60.8429C232.082 60.8766 232.077 60.9152 232.077 60.9586C232.091 61.7734 241.343 69.3328 248.213 72.751C253.974 75.6195 259.432 76.8778 261.042 77.2056C261.288 79.4523 261.625 81.7953 262.083 84.23C253.743 75.7979 233.923 72.2158 231.508 71.0829C229.507 70.1428 228.635 70.5622 229.141 71.0298C229.141 71.0298 229.141 71.0298 229.151 71.0347C229.17 71.0491 229.184 71.0636 229.208 71.0829C229.213 71.0829 229.218 71.0925 229.223 71.0973C229.242 71.1118 229.262 71.1263 229.281 71.1359C229.29 71.1407 229.3 71.1455 229.305 71.1552C229.324 71.1697 229.348 71.1793 229.368 71.1938C229.377 71.1986 229.392 71.2082 229.401 71.213C229.425 71.2227 229.45 71.2371 229.474 71.2468C229.488 71.2516 229.503 71.2613 229.517 71.2661C229.541 71.2757 229.57 71.2902 229.599 71.2998C229.613 71.3046 229.628 71.3143 229.642 71.3191C229.686 71.3384 229.734 71.3529 229.782 71.3721C230.766 71.7096 231.687 72.5726 232.511 73.1752C234.145 74.366 235.77 75.5713 237.433 76.7235C241.449 79.5149 245.591 82.0123 250.315 83.3814C253.463 84.2975 256.684 84.7892 259.948 85.0158C260.034 85.0206 260.121 85.0254 260.208 85.0351C260.271 85.0351 260.333 85.0447 260.396 85.0447C260.459 85.0447 260.521 85.0544 260.579 85.0544C261.283 85.0929 261.852 85.1122 262.252 85.1219C262.643 87.084 263.101 89.1089 263.65 91.1868C261.77 89.861 256.698 86.9346 249.848 88.0965C241.3 89.5476 235.539 88.7473 234.984 89.374C234.97 89.3885 234.96 89.403 234.95 89.4174C234.613 90.1695 238.417 90.3672 242.645 91.4471C243.619 91.6978 244.617 91.9919 245.591 92.3487C251.448 94.5085 258.429 96.2103 263.92 92.204C264.441 94.0987 265.029 96.0368 265.694 98.0231C264.282 97.7001 260.912 97.3529 255.912 99.479C249.158 102.352 248.507 105.457 246.651 106.166C244.795 106.875 243.739 107.569 243.831 108.196C243.922 108.808 259.302 106.846 265.974 98.8378C267.194 102.391 268.664 106.084 270.414 109.907C270.607 110.326 271.104 110.514 271.528 110.322C271.557 110.307 271.586 110.293 271.615 110.273C271.971 110.056 272.121 109.598 271.943 109.208C270.313 105.645 268.934 102.203 267.767 98.8812C269.436 99.6237 272.627 100.853 277.014 101.697C279.565 102.188 282.231 101.846 284.786 101.528C285.793 101.403 286.816 101.229 287.833 101.2C288.421 101.186 289.028 101.456 289.612 101.369C289.997 101.311 290.995 100.805 290.243 100.39C282.076 95.868 277.723 96.4369 274.782 97.1938C272.656 97.7386 269.248 98.0472 267.526 98.1725C266.866 96.2537 266.283 94.3735 265.762 92.5367C269.32 94.3542 273.37 94.9038 277.323 94.6338C278.866 94.5278 280.404 94.3012 281.917 93.9926C283.528 93.6648 285.094 93.1297 286.758 93.337C288.098 93.5009 289 93.9203 289.101 93.3852C289.245 92.5945 285.596 91.1193 277.762 89.9863C271.894 89.1378 267.348 90.5793 265.434 91.3603C264.894 89.3596 264.431 87.4119 264.046 85.5172C264.176 85.5606 264.306 85.5991 264.436 85.6377C264.441 85.6377 264.446 85.6377 264.451 85.6377C264.754 85.7293 265.053 85.8161 265.352 85.9029C265.352 85.9029 265.352 85.9029 265.362 85.9029C269.074 86.9298 272.95 87.3299 276.793 87.0792C278.509 86.9683 280.196 86.6357 281.888 86.3464C283.147 86.1295 283.908 86.0089 285.056 86.5682C285.943 86.9973 286.734 87.6481 287.601 88.1206C288.223 88.458 289.993 89.3066 289.226 87.8602C288.72 86.9105 287.582 86.1005 286.748 85.4642C283.889 83.2802 280.384 81.7423 276.773 81.4627C271.104 81.0191 265.916 83.4489 263.853 84.5771C263.385 82.1858 263.033 79.8862 262.778 77.6829C267.141 78.9412 271.663 79.4571 276.175 79.7946C278.572 79.9729 280.972 79.9778 283.373 80.1176C285.196 80.2236 287.076 80.1754 288.845 80.6961C289.467 80.8793 292.326 82.9379 292.557 82.6101C292.987 82.0074 292.476 79.4908 280.408 75.7063L280.404 75.7159Z" fill="var(--fill-0, #E9E2D1)" fill-opacity="0.5"/>
<path id="Vector_6" d="M321.421 77.5281L321.426 77.5182V77.5231L321.421 77.5281Z" fill="var(--fill-0, #F7A9AE)"/>
<path id="Vector_7" d="M280.206 51.7206V51.7352C280.206 51.7352 280.206 51.7303 280.206 51.7255V51.7206Z" fill="var(--fill-0, #F7A9AE)"/>
<path id="Vector_8" d="M312.701 53.6104H312.695C312.695 53.6104 312.695 53.6104 312.701 53.6104Z" fill="var(--fill-0, #F7A9AE)"/>
<path id="Vector_9" d="M140.694 87.3488L140.699 87.3435H140.694V87.3488Z" fill="var(--fill-0, #F1ECE1)" fill-opacity="0.5"/>
<path id="Vector_10" d="M99.4782 61.5459V61.5606C99.4782 61.5606 99.4782 61.5557 99.4782 61.5508V61.5459Z" fill="var(--fill-0, #F1ECE1)" fill-opacity="0.5"/>
<path id="Vector_11" d="M131.973 63.431H131.967C131.967 63.431 131.967 63.431 131.973 63.431Z" fill="var(--fill-0, #F1ECE1)" fill-opacity="0.5"/>
<path id="Vector_12" d="M127.548 62.9121C125.892 63.0078 124.177 63.4402 122.551 63.754C119.234 64.3854 115.948 65.1622 112.7 66.0806C109.518 66.9799 106.379 68.0131 103.289 69.1802C101.745 69.7619 100.212 70.378 98.6939 71.0285C97.265 71.6407 95.5968 72.7696 94.0907 73.0451C94.5194 71.8895 96.4155 71.2466 97.377 70.554C98.6553 69.6318 99.9335 68.7057 101.196 67.7682C103.726 65.8893 106.216 63.9645 108.626 61.9363C113.407 57.9145 117.879 53.4833 121.52 48.4053C121.555 48.3555 121.594 48.302 121.628 48.2522C122.007 47.7203 122.389 47.131 122.354 46.4843C122.185 43.4536 115.948 47.9116 115.025 48.5354C112.376 50.3224 109.839 52.2702 107.398 54.3289C102.482 58.4656 97.9447 63.0269 93.5231 67.6725C91.8973 69.3792 90.4337 71.1165 88.4913 72.3946C89.0281 71.8971 89.2405 71.1816 89.6189 70.5769C90.0746 69.8499 90.5303 69.1266 90.9859 68.3996C91.8625 66.999 92.7314 65.5946 93.5887 64.1864C95.3033 61.3662 96.9716 58.5191 98.5471 55.6224C101.675 49.8632 104.436 43.8822 106.367 37.6141C106.622 36.7876 107.526 35.0235 106.711 34.2926C105.958 33.6191 104.502 34.262 103.814 34.6867C101.891 35.873 100.644 37.9126 99.2461 39.6193C96.763 42.6462 94.6275 45.9409 92.7469 49.3619C90.9396 52.6452 89.364 56.0433 87.885 59.4835C87.1436 61.2055 86.4292 62.9351 85.7225 64.6686C85.429 65.388 85.371 66.3217 84.8806 66.9493C83.9191 68.1814 83.892 66.073 83.9731 65.3956C84.842 58.3699 85.7109 51.2829 84.8343 44.2074C84.6798 42.96 84.4713 41.7201 84.1971 40.4918C83.8843 39.0835 82.9073 37.7825 82.1967 36.5197C81.9921 36.1523 81.7797 35.7811 81.4785 35.4865C80.8181 34.8436 79.5901 34.5681 79.1228 35.5094C78.505 36.7531 78.6401 38.9267 78.5166 40.3004C78.2115 43.6947 78.1304 47.108 78.2694 50.5138C78.4084 53.9118 78.7676 57.3023 79.343 60.6582C79.6364 62.3688 79.9879 64.0716 80.3933 65.7592C80.625 66.712 81.938 69.804 81.5287 70.4889C81.1077 69.4749 80.2968 68.6942 79.845 67.7031C79.2889 66.4862 78.7637 65.2655 78.1613 64.0716C76.9835 61.7412 75.655 59.4873 74.1915 57.329C72.4885 54.8188 70.5962 52.4309 68.5341 50.1962C67.4837 49.0558 66.387 47.9537 65.2478 46.8938C64.7072 46.3886 64.1588 46.1246 63.6104 45.7649C63.2629 45.5391 62.3631 44.7623 61.8997 44.9383C61.2432 45.1871 61.8495 46.5341 61.9654 47.0009C62.4828 49.1209 63.1548 51.2064 63.9696 53.2345C65.5953 57.2946 67.7926 61.1251 70.4688 64.5959C71.6466 66.1189 72.9132 67.573 74.2687 68.9468C75.6164 70.3091 77.1881 71.4685 78.4663 72.8882C77.5743 72.7543 76.5085 72.1382 75.6164 71.8053C74.5699 71.415 73.5118 71.0514 72.446 70.7109C70.3143 70.0336 68.1518 69.4557 65.9661 68.985C63.7263 68.5029 61.4633 68.1279 59.1849 67.8677C57.4588 67.6687 55.721 67.5615 53.9833 67.4773C52.6162 67.4123 51.3573 67.0602 49.998 67.4773C49.7084 67.5654 49.4149 67.6878 49.2218 67.9174C48.1714 69.1496 51.1565 69.8575 51.8246 70.1522C52.9753 70.6611 54.1377 71.1395 55.3078 71.5948C57.6519 72.5017 60.0422 73.2977 62.4635 73.9788C67.3061 75.345 72.2761 76.2595 77.2924 76.6958C78.1922 76.7761 79.2194 76.6958 80.0883 76.8756C77.3117 78.1116 73.7705 77.8782 70.8048 78.3106C67.6227 78.7736 64.4446 79.2405 61.2625 79.7035C60.4284 79.826 53.8481 81.5594 55.8446 83.2049C56.559 83.7942 58.3161 83.622 59.1734 83.6067C63.7958 83.5417 68.4144 83.0557 72.948 82.1641C75.2496 81.7125 77.5318 81.1538 79.7793 80.4956C80.9031 80.1665 82.0191 79.803 83.1313 79.428C84.2087 79.0645 84.4404 79.2902 84.5215 80.465C84.5794 81.2839 84.2473 82.0416 84.0658 82.8299C83.8264 83.886 83.5869 84.9384 83.3437 85.9907C82.7837 88.0303 82.3165 90.1656 81.9303 92.2396C81.6986 93.5024 80.7525 95.4655 81.6677 96.6441C81.6909 96.7781 81.7642 96.8546 81.9033 96.8661H81.8994C81.9573 96.8661 82.0114 96.8546 82.0616 96.8278C82.0886 96.8469 82.1156 96.8622 82.1543 96.8661C82.1813 96.912 82.2122 96.9541 82.2469 96.9885C82.2894 96.9656 82.328 96.9349 82.3667 96.9043C82.4014 96.9388 82.44 96.9732 82.4786 97C82.5134 96.9732 82.5443 96.9426 82.5752 96.912C82.6215 96.9503 82.6756 96.9694 82.7412 96.9732C83 96.6403 83.417 96.5446 83.6333 96.1084C83.9461 95.477 83.977 94.528 84.1276 93.8392C84.479 92.2129 84.8304 90.5827 85.1818 88.9564C85.6838 86.6336 86.182 84.3146 86.684 81.9919C86.8539 81.2112 86.7728 80.2239 87.3096 79.5734C88.1553 78.5479 89.2791 79.4127 90.2329 79.803C91.7853 80.4382 93.3609 81.0237 94.9519 81.5633C98.1339 82.6386 101.385 83.511 104.679 84.1807C111.268 85.52 118.025 86.0443 124.741 85.7114C124.942 85.6999 125.143 85.6922 125.347 85.6808C126.042 85.6425 126.865 85.5124 127.166 84.8925C127.977 83.2279 124.123 82.9715 123.254 82.6998C120.655 81.8847 118.033 81.15 115.392 80.4956C108.63 78.8196 101.779 77.9203 94.9287 76.9675C104.764 75.1689 114.376 72.1841 123.49 68.1049C125.108 67.3817 126.776 66.5896 128.047 65.3306C128.506 64.8752 128.892 64.3204 128.981 63.8573C129.089 63.291 128.749 62.8624 127.552 62.9313L127.548 62.9121Z" fill="var(--fill-0, #F1ECE1)" fill-opacity="0.5"/>
<path id="Vector_13" d="M189.291 25.2866L189.285 25.2918H189.291V25.2866Z" fill="var(--fill-0, #4F5826)"/>
<path id="Vector_14" d="M147.964 60.3262V60.3314V60.3262Z" fill="var(--fill-0, #4F5826)"/>
<path id="Vector_15" d="M375.986 16.0253L375.992 16.0305H375.986V16.0253Z" fill="var(--fill-0, #4F5826)"/>
<path id="Vector_16" d="M383.423 20.2072C383.5 20.1108 383.578 20.0288 383.65 19.9614C385.183 18.5343 386.036 22.6997 386.258 23.529C387.56 28.432 388.861 33.335 390.168 38.2381C391.368 42.7554 393.475 47.7693 393.543 52.4603C393.605 52.8508 393.668 53.2413 393.726 53.6318C393.721 53.7041 393.687 53.7523 393.634 53.7716C393.639 53.8005 393.649 53.8246 393.663 53.8535C393.789 54.5622 393.957 55.2565 394.16 55.9411C395.307 52.9472 395.423 49.7604 396.088 46.6605C396.59 44.3416 396.614 42.7554 396.175 40.3738C394.796 32.8481 393.74 25.0958 395.139 17.5701C395.751 14.2725 396.836 11.0616 398.345 8.06775C398.735 7.29155 399.979 4.13857 400.919 4.0084C401.994 3.85894 402.211 5.74398 402.25 6.53946C402.481 11.5341 402.717 16.5287 402.949 21.5234C402.987 22.3574 403.026 23.1867 402.973 24.0207C402.896 25.2453 402.621 26.4457 402.346 27.6462C401.849 29.8156 401.353 31.9851 400.851 34.1594C400.471 35.8227 399.241 38.5322 399.752 40.2099C401.411 38.4261 402.577 35.9047 404.072 33.9328C405.668 31.8212 407.384 29.7964 409.206 27.8776C411.265 25.7129 413.459 23.6832 415.778 21.7982C416.935 20.8581 418.125 19.9517 419.34 19.0887C420.088 18.5584 421.274 17.2182 422.098 17.0639C422.098 17.0639 422.098 17.0639 422.103 17.0639C425.444 15.5742 422.44 20.4627 421.949 21.345C421.929 21.3787 421.91 21.4125 421.891 21.4462C421.91 21.4173 421.929 21.3884 421.949 21.3595C421.949 21.3595 421.949 21.3595 421.949 21.3643C421.91 21.4221 421.876 21.48 421.838 21.5378C420.473 23.9821 419.09 26.4168 417.692 28.8418C415.353 32.9011 412.943 36.9701 409.77 40.422C407.938 42.4131 405.875 44.1728 403.73 45.8168C402.616 46.6701 401.473 47.4945 400.326 48.3093C398.436 49.6447 397.954 49.8424 397.477 52.2481C396.45 57.4356 395.423 62.6231 394.396 67.8154C394.642 66.5812 395.915 65.2024 396.527 64.1032C397.395 62.5411 398.33 61.0177 399.328 59.5328C401.324 56.5678 403.561 53.7619 406.01 51.1634C408.657 48.3527 411.549 45.7782 414.645 43.4786C416.269 42.2685 417.952 41.1404 419.683 40.0894C420.951 39.318 422.691 38.7057 423.655 37.5535C424.316 36.7628 424.764 38.2188 424.832 38.6768C425.169 40.8897 422.889 41.9744 421.756 43.3773C420.844 44.5055 420.223 46 419.461 47.2342C417.836 49.8713 416.096 52.441 414.244 54.9238C409.819 60.8682 404.636 67.2803 398.518 71.5421C398.446 71.7494 398.287 71.8458 398.084 71.894C396.85 72.9884 395.486 73.9141 394.15 74.8735C392.241 76.2475 391.74 78.8171 391.349 80.9818C391.113 82.2979 391.06 83.6526 390.771 84.9592C390.597 85.7595 389.257 88.1411 389.85 88.4834C390.342 87.7265 390.824 86.9551 391.311 86.1933C393.413 82.8861 395.693 79.3088 398.359 76.4307C400.273 74.3672 402.418 72.5256 404.67 70.843C409.255 67.4249 414.297 64.6865 419.326 61.9867C420.068 61.5866 421.298 61.3937 421.466 62.2181C421.548 62.6231 421.259 63.004 420.984 63.3125C415.493 69.5895 409.997 75.8666 404.188 81.8544C401.184 84.9543 398.099 87.9772 394.893 90.8746C391.937 93.5455 388.519 95.8934 385.983 98.9837C384.629 100.623 383.761 102.628 382.825 104.518C380.974 108.264 377.575 111.692 376.061 115.477C375.951 115.761 375.637 115.877 375.502 116.142L375.488 116.161C375.411 116.238 375.348 116.33 375.3 116.426V116.436C375.17 116.61 375.15 116.831 375.073 117.024C375.266 116.981 375.464 117.01 375.657 117.072C375.743 117.053 375.825 117.034 375.912 117.019C379.451 113.78 382.999 110.704 386.253 107.025C389.821 102.995 393.282 98.8631 397.052 95.0207C400.442 91.5689 404.082 88.3532 407.924 85.4123C409.954 83.8599 412.032 82.2835 414.22 80.9528C415.093 80.4225 417.166 78.7159 418.169 78.8026C418.834 78.8605 419.196 79.6897 419.037 80.3406C418.877 80.9914 418.376 81.4928 417.928 81.9845C415.252 84.9061 414.394 88.4062 412.316 91.6219C411.26 93.2611 409.848 94.6254 408.883 96.3321C408.122 97.682 407.678 99.191 406.748 100.459C404.506 103.511 401.907 106.297 399.029 108.761C391.552 115.163 383.568 119.078 373.709 119.623C371.901 119.724 369.249 124.699 368.054 126.049C366.897 127.361 363.705 131.449 361.516 130.374C359.535 129.4 363.854 126.228 364.443 125.635C366.222 123.856 367.938 122.019 369.592 120.124C370.011 119.642 370.435 119.141 370.628 118.533C371.062 117.164 369.529 114.956 369.095 113.693C368.372 111.572 367.856 109.383 367.514 107.175C366.819 102.72 366.824 98.1689 367.311 93.6949C367.769 89.4379 368.651 85.2388 369.717 81.0975C370.107 79.5933 372.291 69.3967 373.974 70.3416H373.979C374.08 70.4236 374.181 70.4959 374.254 70.6068C374.345 71.0841 374.403 71.5614 374.36 72.0579C374.229 73.5959 374.152 75.1338 374.148 76.6814C374.09 87.3697 376.119 97.9809 375.796 108.635C375.767 109.508 375.743 110.386 375.714 111.263C375.84 111.35 375.97 111.441 376.095 111.528C376.958 110.574 377.469 109.383 378.217 108.351C378.294 108.414 378.361 108.462 378.414 108.51C378.366 108.447 378.298 108.394 378.217 108.351C378.217 108.351 384.614 97.171 384.291 96.2887C384.267 96.226 384.277 96.1682 384.325 96.1151C384.416 96.0187 381.881 91.0964 381.688 90.6239C380.868 88.6135 380.126 86.5742 379.46 84.506C378.135 80.3695 377.137 76.1318 376.457 71.8458C375.107 63.2691 375.064 54.4803 376.375 45.8988C376.611 44.356 376.891 42.8133 377.214 41.285C377.426 40.2822 377.628 39.829 378.612 39.6651C380.343 39.8628 379.484 44.7754 379.576 45.9325C379.923 50.2233 380.839 54.5333 381.572 58.771C382.44 63.7512 383.303 68.9387 384.117 74.0057C384.908 78.9424 386.012 83.9082 386.702 88.8112C386.678 88.8546 386.653 88.8835 386.62 88.9124C386.711 88.9655 386.798 89.0233 386.89 89.0764C386.943 88.9848 387.001 88.8932 387.054 88.8016C387.049 88.6473 387.044 88.493 387.039 88.3387C387.193 88.1941 387.208 88.0061 387.184 87.8084C387.092 87.0178 387.873 85.475 388.085 84.6843C389.175 80.6298 389.859 76.3391 390.785 72.1785C390.959 71.4023 391.643 70.4332 391.537 69.6281C391.412 68.6639 390.076 67.4056 389.561 66.5716C388.804 65.3518 388.109 64.0887 387.478 62.7966C384.932 57.6043 383.38 51.9637 382.536 46.2555C381.673 40.4076 381.538 34.4535 382.131 28.5718C382.285 27.0532 382.483 25.5393 382.734 24.0352C382.878 23.1577 382.859 20.8774 383.394 20.212L383.423 20.2072Z" fill="var(--fill-0, #4F5826)"/>
<path id="Vector_17" d="M395.705 66.4924V66.4976V66.4924Z" fill="var(--fill-0, #4F5826)"/>
<path id="Vector_18" d="M202.35 117.273C202.35 117.273 202.37 117.307 202.375 117.321C202.384 117.311 202.394 117.307 202.399 117.302C202.379 117.292 202.365 117.282 202.346 117.273H202.35Z" fill="var(--fill-0, #4F5826)"/>
<path id="Vector_19" d="M21.719 64.9882C21.7238 65.0075 21.7287 65.022 21.7335 65.0414C21.7432 65.0365 21.7528 65.0317 21.7625 65.0269C21.748 65.0124 21.7287 65.0027 21.7142 64.9882H21.719Z" fill="var(--fill-0, #4F5826)"/>
<path id="Vector_20" d="M57.8342 62.7921C57.8101 62.1364 57.4099 61.447 56.7687 61.3023C56.735 61.2927 56.6964 61.2879 56.6627 61.2831C55.737 61.1577 55.0235 62.1605 54.5607 63.009C51.2872 68.9679 46.5577 74.0252 41.3268 78.3642C36.0959 82.7031 30.3444 86.3623 24.6073 90.0119C22.9681 91.0532 21.329 92.0994 19.6898 93.1408C19.3282 93.3722 18.364 94.2207 17.8771 93.782C17.4866 93.4348 18.0555 91.9982 18.0747 91.4968C18.123 90.2481 18.3785 89.0091 18.5424 87.7653C19.1788 86.7239 20.0321 85.8417 20.8999 85.0172C21.6279 84.3278 22.3077 83.6191 22.9006 82.8188C25.0123 79.9889 27.606 77.4964 30.3974 75.3365C31.3231 74.6182 32.1957 73.8372 33.1454 73.1526C33.8156 72.6705 34.4616 72.1691 35.0739 71.6146C36.067 70.7083 36.9975 69.72 38.1401 69.0016C39.8419 67.9313 41.3075 66.5863 42.7635 65.2315C44.5087 63.6116 46.1961 61.9291 47.9944 60.3671C49.7348 58.8532 51.1811 57.0598 52.5985 55.2567C53.3506 54.2973 59.0395 46.5739 57.3328 46.3715C55.5972 46.1642 54.2618 49.4328 53.5579 50.6526C52.449 52.5762 51.2534 54.0707 49.7058 55.6376C48.0474 57.3105 46.0852 58.6652 44.1038 59.9476C41.7414 61.4759 39.4948 63.1777 37.1035 64.6578C32.268 67.6517 28.927 72.386 25.4992 76.8021C24.5205 78.0652 23.5322 79.3139 22.5439 80.5674C22.0666 81.17 21.6279 81.8064 21.1651 82.4187C20.8083 82.8863 20.1912 83.9132 19.6223 84.082C19.5452 84.1061 19.8537 82.2596 19.8875 82.1005C20.3021 79.9165 20.5287 77.7085 20.9819 75.5294C21.1506 74.7194 21.3434 73.9143 21.5652 73.1188C21.7822 72.3426 22.1678 71.5471 22.3173 70.7613C22.7849 69.4934 23.3442 68.2543 24.0095 67.0828C24.6507 65.9595 25.4847 64.9567 26.0826 63.8141C26.1983 63.5924 26.4152 63.4188 26.5936 63.226C27.1191 62.6522 27.6446 62.0785 28.1797 61.5097C32.5042 56.9296 37.5423 52.8269 42.4983 48.9459C43.8 47.9287 44.9233 46.7282 46.1479 45.6338C46.8903 44.9733 47.6087 44.2695 48.2451 43.5077C51.1474 40.0269 52.0971 35.1624 53.5386 30.944C53.6977 30.4715 53.7363 29.3241 52.8733 29.705C52.5021 29.8689 52.2417 30.6355 52.0441 30.9778C51.7259 31.5225 51.4077 32.0721 51.0895 32.6169C49.6384 35.1094 48.3511 37.843 46.4516 40.0125C45.0583 41.6034 43.4384 42.9678 41.9632 44.4768C38.95 47.4803 35.9851 50.5417 33.0731 53.6465C30.3878 56.5102 26.743 59.533 24.8146 62.9801C24.2168 63.2838 24.2168 64.1757 23.4599 64.4216C23.3201 63.8672 23.5129 63.4188 23.5852 62.9656C23.8311 61.4807 24.3277 60.0682 24.8098 58.6508C24.94 58.5399 25.1135 58.4579 25.1907 58.3229C26.1211 56.7368 27.0805 55.1603 27.9483 53.5404C29.0813 51.4384 30.0889 49.2593 31.4099 47.2634C33.6565 43.8645 35.6428 40.2583 36.9155 36.3725C37.5471 34.4441 37.8701 32.4578 38.357 30.4956C38.897 28.3117 39.4321 26.1277 39.9335 23.939C40.083 23.2881 40.2276 22.6325 40.3674 21.9768C41.3172 17.5366 41.4522 13.188 41.9777 8.72364C41.9873 8.64169 41.9584 8.55491 41.9439 8.46813C41.8764 8.07762 41.6739 7.82692 41.4184 7.82692C41.0761 7.82692 40.8447 8.0053 40.7435 8.32349C40.6953 8.47777 40.7194 8.65615 40.7097 8.82489C40.5169 9.01773 40.459 9.26843 40.3819 9.51912C37.2 20.2316 33.5986 30.8379 30.6192 41.6034C30.3348 42.6351 30.1612 43.6813 29.7659 44.6937C29.3127 45.8556 29.0957 47.1043 28.7824 48.324C28.7534 48.4397 28.8016 48.5795 28.8113 48.7049V48.7145C28.6811 48.7772 28.6474 48.8736 28.6908 48.9989C28.0785 50.6333 26.9986 52.123 26.1115 53.6175C26.0054 53.7911 25.8319 53.9936 25.6438 53.9213C25.4606 53.849 25.4606 53.5934 25.4944 53.4006C26.0729 49.9246 26.9793 46.2799 27.0612 42.7508C27.1143 42.6351 27.1673 42.5146 27.2155 42.3989C27.2155 42.3989 27.2155 42.3989 27.2155 42.4037C27.3071 42.3218 27.4469 42.2591 27.4903 42.1578C28.5461 39.5882 29.3898 36.9366 30.0985 34.2561C30.7156 31.9323 31.1736 29.57 31.5834 27.198C32.321 22.8976 32.7549 18.549 32.8899 14.1859C33.0249 9.79392 32.7019 5.40192 32.2053 1.04366C31.9595 -1.14029 31.6654 -3.3146 31.3665 -5.49372C31.299 -5.98547 31.352 -7.90426 30.6867 -7.99586C30.2239 -8.05854 30.0455 -7.39323 29.9346 -7.06057C29.8334 -6.7472 29.7803 -6.41937 29.6839 -6.10118C29.2114 -4.46683 28.874 -2.7891 28.5461 -1.12582C27.6735 3.29993 26.9696 7.75461 26.2947 12.2141C25.8801 14.9428 25.6342 17.7342 25.1135 20.4437C24.588 23.158 24.4723 25.9253 24.3325 28.6781C24.1975 31.3249 24.1252 33.9909 24.3373 36.6473C24.482 38.4601 24.858 40.239 25.181 42.0277C25.6631 44.7034 24.8002 47.2103 24.4482 49.8185C24.3759 50.3537 24.3229 50.8936 24.2505 51.4288C24.2313 51.5734 23.9757 52.4701 23.9902 52.4894C23.0887 51.3372 22.7512 49.1966 22.3028 47.7792C21.7436 46.0195 21.2084 44.2502 20.7071 42.4712C19.7236 38.9952 18.8461 35.4903 18.0796 31.9612C16.5513 24.9032 15.4665 17.7487 14.835 10.5557C14.7868 10.0157 14.6229 9.33592 14.0877 9.24914C13.4658 9.1479 13.1187 9.94338 13.0174 10.5653C11.6965 18.4815 12.5835 26.6388 14.5554 34.42C15.698 38.9277 17.1973 43.339 18.8461 47.6876C19.6705 49.8667 20.5287 52.0266 21.4013 54.1864C21.7918 55.1555 22.2161 56.0811 22.4041 57.108C22.4909 57.5805 23.0935 59.4848 22.944 59.7837C22.809 60.0489 22.5969 60.3092 22.5583 60.5888C22.3655 61.9821 22.1196 63.4043 21.8882 64.7832C21.194 64.9953 20.2201 62.9078 20.0176 62.4257C18.4749 58.7231 17.448 54.8566 15.4424 51.3565C13.379 47.7503 11.6675 43.9513 9.45465 40.4271C9.18949 40.0028 8.91469 39.5786 8.63025 39.1639C7.12125 36.9366 5.45798 34.7382 3.71275 32.6555C2.83531 31.6093 1.96752 30.5487 1.05633 29.5314C0.506728 28.9192 -0.00912703 28.2683 -0.597299 27.6898C-0.785321 27.5066 -1.37349 26.687 -1.66276 26.9859C-1.99059 27.3234 -1.43617 28.1671 -1.27707 28.4756C-0.905848 29.2036 -0.529804 29.9412 -0.192328 30.6885C0.0824735 31.2959 0.550118 31.807 0.863488 32.4C1.2781 33.181 1.68789 33.9572 2.10251 34.7382C3.72239 37.7948 5.35674 40.8417 6.89948 43.9368C8.47597 47.0946 10.0573 49.8089 12.1545 52.634C14.4686 55.7436 16.6284 59.0027 18.1326 62.5896C20.2828 67.7096 20.9867 73.6877 18.7979 78.7884C16.8116 74.4494 14.8302 70.1056 12.8439 65.7667C12.0146 63.9539 11.3542 62.0737 10.5346 60.2562C8.79899 56.3993 6.04615 53.121 3.90559 49.5003C2.65211 47.3742 1.51916 45.1855 0.38138 42.9967C-0.298392 41.6902 -0.901027 40.3451 -1.52777 39.0145C-1.69651 38.6577 -1.8556 38.3106 -2.23165 38.1178C-2.64626 37.9056 -3.05605 38.1274 -3.04641 38.5806C-3.04159 38.9325 -2.93552 39.2459 -2.79571 39.5737C-1.99059 41.4877 -1.22886 43.4258 -0.428561 45.3397C0.0872948 46.5788 0.64654 47.7985 1.19132 49.0231C1.23953 49.1339 1.36488 49.2111 1.45648 49.3027C3.81881 55.3724 6.56201 61.823 10.3755 67.1359C10.8769 68.4809 11.5952 69.7151 12.3521 70.9204C14.3866 74.1602 15.8426 77.6747 17.3853 81.1556C17.8723 82.2499 17.8626 83.3154 17.5975 84.4435C17.2937 85.7404 16.8888 87.0035 16.7248 88.3486C16.5079 90.1228 16.4259 91.6848 15.8474 93.3722C9.09307 78.4943 2.33874 63.6165 -4.41077 48.7386C-4.79164 47.8997 -5.55819 46.897 -6.39706 47.2682C-7.18771 47.6153 -7.06237 48.7627 -6.79721 49.5823C-3.75511 59.0075 0.0583684 68.182 4.58536 76.9901C6.87538 81.4496 9.35341 85.8127 12.005 90.0649C13.0897 91.8053 14.8446 93.7048 15.4087 95.6863C15.9438 97.5713 15.2496 99.7167 15.804 101.597C15.7896 101.636 15.7606 101.679 15.7606 101.717C15.7172 104.35 15.5389 107.175 16.3343 109.725C16.7152 110.94 17.2021 112.208 17.7999 110.583C18.1567 109.605 17.4046 107.85 17.3757 106.804C17.2986 104.249 17.2407 101.693 17.1684 99.143C17.125 97.5424 18.4797 96.5493 19.603 95.6574C21.8207 93.8977 24.0481 92.0078 26.6273 90.7495C29.4766 89.361 32.3018 87.9581 35.0594 86.3864C35.4065 86.1888 35.7488 85.9911 36.0911 85.7886C37.5615 84.9305 39.0079 84.0337 40.4253 83.084C45.9117 79.42 50.9642 74.9653 54.6137 69.4644C55.631 67.9265 56.5373 66.3163 57.3183 64.6482C57.598 64.0552 57.8679 63.4236 57.8438 62.768L57.8342 62.7921Z" fill="var(--fill-0, #4F5826)"/>
<path id="Vector_21" d="M211.088 68.216C209.348 69.6382 207.718 71.1231 206.417 73.1286C205.52 74.5123 203.379 78.2245 205.751 79.3382C207.603 80.206 210.597 76.1515 212.983 72.2078C214.029 70.4819 214.989 68.7125 215.929 66.9287C216.599 65.656 217.047 63.8866 218.185 62.9321C219.53 61.8087 221.102 63.4527 221.892 64.47C223.088 66.0079 223.888 67.9363 223.623 69.913C223.348 71.9764 221.651 73.442 220.075 74.6135C217.761 76.325 215.432 78.0124 213.306 79.9553C212.217 80.9533 211.006 81.8837 210.177 83.1276C209.121 84.7041 209.502 86.8398 211.759 86.1166C215.596 84.8921 217.737 80.582 220.321 77.781C221.589 76.407 222.886 75.0667 224.221 73.7602C224.949 73.0467 225.778 71.9957 226.709 71.5377C227.837 70.9881 229.018 77.0675 229.057 77.6026C229.177 79.2707 228.946 81.0159 228.039 82.4526C226.714 84.5546 223.922 85.702 221.762 86.7241C218.841 88.1029 214.598 89.1973 212.414 91.7139C212.014 92.1767 211.763 92.8035 211.898 93.3965C212.043 94.0328 212.617 94.5101 213.243 94.6837C213.87 94.8572 214.545 94.7753 215.177 94.6066C216.006 94.3848 216.835 94.1052 217.616 93.7532C219.424 92.9481 221.145 91.9694 222.852 90.9715C223.667 90.4942 227.432 87.5196 228.266 88.7875C228.897 89.7469 228.406 91.4921 228.059 92.4612C227.167 94.944 226.014 97.2389 224.742 99.553C222.707 103.246 219.193 106.346 215.244 107.826C212.192 108.969 208.201 109.248 205.983 106.399C205.616 105.926 205.303 105.377 205.048 104.74C204.402 103.121 203.891 101.462 203.351 100.426C204.619 103.979 205.978 107.619 207.444 111.302C207.593 111.678 207.473 112.097 207.179 112.343C207.106 112.401 207.024 112.454 206.933 112.488C206.465 112.671 205.935 112.445 205.747 111.977C204.917 109.889 204.122 107.816 203.355 105.767C203.77 106.886 203.182 108.144 202.661 109.118C201.861 110.622 201.22 111.977 199.614 112.743C198.096 113.467 196.355 113.785 194.692 113.949C192.643 114.151 190.338 113.929 188.646 112.647C188.579 112.599 188.516 112.541 188.478 112.469C188.376 112.261 188.555 112.025 188.738 111.885C189.201 111.529 189.774 111.345 190.334 111.172C192.325 110.55 195.936 109.378 196.042 106.77C196.114 105.025 194.451 104.654 193.154 105.338C191.404 106.264 189.895 107.585 188.241 108.67C186.588 109.754 184.679 110.637 182.702 110.506C179.303 110.28 176.367 107.445 174.424 104.88C173.85 104.123 170.085 98.8828 172.722 99.1528C175.446 99.4373 178.175 99.7169 180.899 100.001C182.504 100.17 185.918 100.874 187.229 99.5626C189.095 97.7017 186.356 94.7897 183.068 95.3104C179.66 95.8504 176.193 96.4 172.727 96.2795C171.927 96.2505 171.102 96.1782 170.384 95.8311C168.166 94.756 167.901 90.147 167.602 88.0113C167.347 86.2082 166.59 83.2288 167.289 81.4498C167.713 80.3747 171.782 82.7612 172.337 83.0167C174.766 84.1496 177.085 85.4513 179.462 86.6903C179.578 86.7482 179.655 86.8639 179.761 86.9169C183.097 88.5898 185.604 88.5609 185.946 86.4878C186.289 84.4148 184.177 82.5972 181.121 82.3273C177.326 81.9898 173.002 80.5965 169.854 78.4077C169.805 78.374 169.757 78.3402 169.709 78.3065C169.56 78.1956 169.415 78.0895 169.294 77.9835C167.115 76.0888 169.584 71.0459 170.456 69.4212C171.329 67.7965 172.438 67.165 174.752 70.2842C174.858 70.4288 174.983 70.5783 175.114 70.7277C175.138 70.7518 175.157 70.7808 175.181 70.8049C175.316 70.9591 175.461 71.1134 175.615 71.2677C175.625 71.2822 175.639 71.2918 175.649 71.3063C175.981 71.6437 176.362 71.9909 176.772 72.338C179.968 75.0426 185.132 77.8003 186.973 76.9566C187.022 76.9325 187.075 76.918 187.118 76.8891C188.723 75.8767 188.723 74.4544 187.687 73.2106C187.33 72.7815 186.8 72.2849 186.269 72.0873C184.394 71.3738 182.47 70.7808 180.585 70.0769C178.671 69.3634 175.774 68.2642 174.901 66.249C174.487 65.2944 174.12 64.3109 173.966 63.284C173.527 60.3769 175.369 56.9925 177.471 55.0689C179.322 53.3719 179.992 58.6124 181.723 61.9196C182.36 63.1394 183.488 64.3784 184.982 64.2868C186.583 64.1904 187.778 62.6765 187.402 61.1049C186.92 59.0897 185.084 57.0937 183.883 55.4497C182.861 54.0468 181.448 52.4799 181.005 50.7588C180.127 47.331 184.987 44.7277 186.94 42.7848C188.473 41.2565 190.893 42.3123 192.585 43.0017C193.713 43.4597 194.846 43.9032 195.941 44.4384C196.389 44.6602 197.859 45.1808 197.965 45.7786C198.071 46.3572 196.355 51.7616 195.02 56.3079C194.639 57.6096 194.282 58.9113 193.896 60.213C193.583 61.2688 193.385 62.4017 193.67 63.4672C193.8 63.9493 194.036 64.4121 194.422 64.7303C195.531 65.6367 196.751 64.6773 197.276 63.6504C197.387 63.4334 197.493 63.1924 197.585 62.9224C198.891 59.1523 200.362 47.0514 200.945 45.9715C201.668 44.6216 208.176 50.0501 208.495 51.2747C208.553 51.5013 208.562 51.7375 208.543 51.9689C208.451 53.0247 207.776 53.8925 207.333 54.8182C207.333 54.8278 207.323 54.8375 207.318 54.8471C205.862 57.5421 204.185 60.1262 202.449 62.6476C201.75 63.6649 201.036 64.6773 200.289 65.656C199.46 66.7455 198.462 68.4715 199.773 69.6334C200.424 70.2119 201.461 70.2167 202.396 69.0163C205.443 65.1064 207.815 60.5215 210.201 56.1874C210.201 56.1874 210.206 56.1777 210.211 56.1729C210.852 55.011 211.397 52.9187 213.017 53.5406C214.632 54.1625 216.054 55.8306 217.129 57.1178C217.351 57.3782 217.52 57.6819 217.64 58.0146C218.373 60.0008 217.317 63.1008 214.188 65.7283C213.147 66.6057 212.096 67.4108 211.079 68.2401L211.088 68.216ZM184.167 67.136C183.763 67.8496 184.674 68.9005 185.874 69.5851C185.956 69.6334 186.038 69.6767 186.125 69.7201C186.13 69.7201 186.135 69.725 186.144 69.7298C186.221 69.7683 186.298 69.8069 186.38 69.8455C186.39 69.8503 186.404 69.8551 186.414 69.8599C186.486 69.8937 186.564 69.9226 186.636 69.9515C186.655 69.9564 186.67 69.966 186.689 69.9708C186.756 69.9949 186.829 70.0239 186.896 70.048C186.916 70.0576 186.94 70.0624 186.959 70.0672C187.022 70.0865 187.089 70.1058 187.152 70.1251C187.176 70.1347 187.2 70.1396 187.229 70.1444C187.292 70.1589 187.349 70.1733 187.412 70.1878C187.441 70.1926 187.47 70.1974 187.494 70.2071C187.552 70.2167 187.605 70.2263 187.663 70.236C187.692 70.2408 187.725 70.2456 187.754 70.2505C187.807 70.2553 187.86 70.2601 187.913 70.2649C187.947 70.2649 187.976 70.2697 188.01 70.2697C188.058 70.2697 188.106 70.2697 188.159 70.2697C188.193 70.2697 188.222 70.2697 188.256 70.2697C188.304 70.2697 188.347 70.2649 188.396 70.2601C188.429 70.2601 188.458 70.2553 188.492 70.2505C188.535 70.2456 188.579 70.236 188.622 70.2263C188.651 70.2215 188.685 70.2119 188.714 70.2071C188.752 70.1974 188.796 70.183 188.834 70.1685C188.863 70.1589 188.892 70.1492 188.921 70.1396C188.96 70.1251 188.993 70.1058 189.032 70.0865C189.061 70.0721 189.085 70.0624 189.114 70.0431C189.153 70.019 189.186 69.9949 189.22 69.9708C189.244 69.9515 189.268 69.9371 189.287 69.9226C189.321 69.8937 189.355 69.8551 189.389 69.8214C189.403 69.8021 189.422 69.7876 189.442 69.7683C189.49 69.7105 189.533 69.6526 189.577 69.5851C189.625 69.508 189.659 69.4357 189.688 69.3585C189.697 69.3344 189.702 69.3152 189.707 69.2911C189.721 69.238 189.736 69.1802 189.741 69.1271C189.741 69.103 189.745 69.0789 189.75 69.0596C189.75 68.997 189.75 68.9295 189.741 68.8668C189.741 68.8572 189.741 68.8475 189.741 68.8427C189.731 68.7704 189.707 68.6981 189.683 68.6306C189.673 68.6113 189.664 68.592 189.659 68.5727C189.635 68.5197 189.611 68.4715 189.582 68.4233C189.567 68.404 189.557 68.3799 189.543 68.3606C189.504 68.3076 189.466 68.2497 189.418 68.1967C189.408 68.187 189.398 68.1726 189.389 68.1629C189.331 68.1002 189.268 68.0376 189.201 67.9749C189.181 67.9604 189.167 67.946 189.148 67.9267C189.095 67.8785 189.037 67.8351 188.979 67.7917C188.955 67.7724 188.931 67.758 188.907 67.7387C188.844 67.6953 188.776 67.6471 188.709 67.6037C188.69 67.594 188.675 67.5796 188.656 67.5699C188.569 67.5169 188.478 67.4639 188.381 67.4157C188.362 67.406 188.343 67.3964 188.323 67.3867C188.246 67.3482 188.164 67.3096 188.082 67.271C188.053 67.2566 188.024 67.2469 187.995 67.2325C187.913 67.1987 187.832 67.165 187.75 67.1312C187.725 67.1216 187.706 67.1119 187.682 67.1023C187.576 67.0637 187.465 67.0251 187.359 66.9866C187.345 66.9866 187.335 66.9769 187.32 66.9769C187.224 66.948 187.128 66.9191 187.031 66.8902C187.002 66.8805 186.973 66.8757 186.944 66.8661C186.858 66.8419 186.771 66.8227 186.684 66.8034C186.66 66.7986 186.636 66.7937 186.612 66.7889C186.501 66.7648 186.39 66.7455 186.284 66.7262C185.315 66.5768 184.447 66.678 184.182 67.1409L184.167 67.136ZM188.916 89.7806C189.022 89.8337 189.133 89.8867 189.249 89.9349C189.263 89.9397 189.283 89.9494 189.297 89.9542C189.408 89.9976 189.519 90.0362 189.635 90.0747C189.644 90.0747 189.649 90.0796 189.659 90.0844C189.909 90.1615 190.17 90.2194 190.435 90.2579C190.454 90.2579 190.473 90.2628 190.493 90.2676C190.604 90.282 190.719 90.2965 190.835 90.3013C190.854 90.3013 190.874 90.3013 190.898 90.3013C191.158 90.3158 191.423 90.3158 191.679 90.2917C191.703 90.2917 191.727 90.2869 191.756 90.282C191.857 90.2724 191.958 90.2579 192.055 90.2435C192.089 90.2387 192.117 90.2338 192.151 90.229C192.257 90.2097 192.359 90.1856 192.46 90.1615C192.474 90.1615 192.493 90.1519 192.508 90.1471C192.624 90.1133 192.735 90.0747 192.845 90.0362C192.87 90.0265 192.894 90.0169 192.918 90.0024C193 89.9687 193.082 89.9301 193.159 89.8915C193.193 89.8771 193.221 89.8578 193.25 89.8433C193.323 89.7999 193.395 89.7565 193.463 89.7083C193.487 89.6939 193.511 89.6746 193.535 89.6601C193.622 89.5926 193.708 89.5251 193.786 89.4528C193.8 89.4384 193.81 89.4239 193.824 89.4094C193.887 89.3468 193.945 89.2793 194.003 89.2069C194.022 89.178 194.046 89.1539 194.065 89.125C194.109 89.0623 194.152 88.9948 194.191 88.9225C194.205 88.8936 194.224 88.8646 194.239 88.8357C194.287 88.7345 194.33 88.6332 194.364 88.5223C194.388 88.4356 194.407 88.3488 194.422 88.2668C194.422 88.2427 194.427 88.2138 194.432 88.1897C194.436 88.1318 194.441 88.074 194.441 88.021C194.441 87.992 194.441 87.9631 194.441 87.9342C194.441 87.8811 194.436 87.8281 194.427 87.7751C194.427 87.7462 194.422 87.722 194.412 87.6931C194.403 87.6353 194.388 87.5822 194.369 87.5244C194.364 87.5051 194.359 87.4858 194.35 87.4617C194.326 87.3894 194.292 87.3123 194.258 87.2399C194.258 87.2351 194.248 87.2255 194.248 87.2207C194.215 87.158 194.181 87.0953 194.137 87.0326C194.123 87.0133 194.109 86.9892 194.094 86.97C194.06 86.9217 194.027 86.8784 193.988 86.835C193.969 86.8109 193.949 86.7916 193.93 86.7675C193.892 86.7241 193.853 86.6855 193.814 86.6469C193.79 86.6277 193.771 86.6036 193.747 86.5843C193.699 86.5409 193.651 86.5023 193.602 86.4589C193.583 86.4445 193.564 86.4252 193.545 86.4107C193.477 86.3577 193.405 86.3046 193.328 86.2564C193.303 86.242 193.275 86.2227 193.25 86.2082C193.197 86.1745 193.144 86.1456 193.091 86.1118C193.053 86.0925 193.014 86.0732 192.98 86.0491C192.937 86.025 192.889 86.0009 192.845 85.9816C192.802 85.9624 192.759 85.9382 192.715 85.919C192.672 85.8997 192.628 85.8804 192.585 85.8659C192.537 85.8466 192.489 85.8274 192.436 85.8081C192.402 85.7936 192.363 85.784 192.33 85.7695C192.117 85.6972 191.901 85.6345 191.674 85.5815C191.655 85.5815 191.64 85.5718 191.621 85.5718C191.544 85.5574 191.471 85.5429 191.394 85.5285C191.375 85.5285 191.356 85.5236 191.336 85.5188C191.259 85.5043 191.177 85.4947 191.1 85.4851C191.091 85.4851 191.081 85.4851 191.066 85.4851C190.073 85.3742 189.071 85.5236 188.371 86.0057C187.947 86.2998 187.634 86.7193 187.509 87.2785C187.263 88.4115 187.913 89.2696 188.902 89.7806H188.916ZM194.812 97.2292C194.962 95.5322 191.693 95.0308 190.396 96.1541C190.247 96.2843 190.122 96.4337 190.035 96.6073C189.948 96.7809 189.89 96.9785 189.88 97.1955C189.755 99.5337 194.629 99.3167 194.817 97.2292H194.812ZM205.949 99.2637C206.021 101.809 214.796 102.976 214.728 99.6398C214.661 96.3036 205.829 95.0597 205.949 99.2637ZM204.469 80.5145C203.028 79.3285 198.708 81.633 200.448 83.8845C201.933 85.8081 205.911 81.7005 204.469 80.5145Z" fill="var(--fill-0, #F1ECE1)" fill-opacity="0.5"/>
</g>
<defs>
<clipPath id="clip0_0_28">
<rect width="415.5" height="170.666" fill="white"/>
</clipPath>
</defs>
</svg>
