<svg preserveAspectRatio="none" width="100%" height="100%" overflow="visible" style="display: block;" viewBox="0 0 104 31.1396" fill="none" xmlns="http://www.w3.org/2000/svg">
<g id="Layer_1" clip-path="url(#clip0_0_17)">
<path id="Vector" d="M31.9273 15.4385C31.6647 14.362 30.0894 13.8106 27.49 12.9442C26.9387 12.7604 26.361 12.6029 25.6784 12.4716C25.3108 12.3928 24.4706 12.2615 23.4203 12.2615C22.0813 12.2615 20.8735 12.4453 19.797 12.7867C18.9831 12.4453 18.0904 12.2615 17.0664 12.2615C15.5173 12.2615 14.2307 12.4453 13.1805 12.7867C12.1303 13.128 11.2638 13.6006 10.6074 14.2045C10.5024 13.4693 10.1873 12.9442 9.63595 12.6554C9.08457 12.3666 8.42817 12.2353 7.64049 12.2615C6.85281 12.2878 6.01262 12.4716 5.11992 12.7604C4.22722 13.0492 3.41328 13.4431 2.65186 13.8894C1.89043 14.3358 1.26029 14.8346 0.761424 15.386C0.26256 15.9374 0 16.4362 0 16.9351C0 17.434 0.105024 17.8541 0.315072 18.1954C0.52512 18.5367 0.761424 18.9043 0.997728 19.2456C1.23403 19.587 1.47034 19.9545 1.68038 20.3484C1.89043 20.7422 1.99546 21.2148 1.99546 21.7662C1.99546 22.5276 1.91669 23.1315 1.7329 23.5516C1.5491 23.9717 1.36531 24.3393 1.18152 24.6281C0.997728 24.9169 0.813936 25.2057 0.630144 25.4946C0.446352 25.7834 0.367584 26.1772 0.367584 26.7023C0.367584 27.8576 0.813936 28.6715 1.68038 29.1179C2.54683 29.5642 3.83337 29.8005 5.51376 29.8005C7.19414 29.8005 8.48069 29.5642 9.34713 29.1179C10.2136 28.6715 10.6599 27.8576 10.6599 26.7023C10.6599 26.151 10.5812 25.6784 10.3974 25.3108C10.2136 24.9432 10.0298 24.5493 9.846 24.1555C9.66221 23.7617 9.47841 23.2891 9.29462 22.7639C9.11083 22.2388 9.03206 21.5299 9.03206 20.6635C9.03206 19.797 9.32088 18.9568 9.87225 18.1691C10.4236 17.3815 11.08 16.7251 11.7889 16.1737C12.4979 15.6223 13.2068 15.2285 13.8632 14.9922C14.5196 14.7559 14.9659 14.7034 15.176 14.8346C15.3072 14.9397 15.3072 15.2285 15.1235 15.6748C14.4145 16.41 13.8894 17.2239 13.5218 18.1429C13.1543 19.0618 12.9705 20.0071 12.9705 21.031C12.9705 22.2651 13.233 23.3941 13.7844 24.4706C14.3358 25.5471 15.0709 26.466 16.0162 27.2537C16.9614 28.0414 18.0641 28.6715 19.3507 29.1179C20.6372 29.5642 21.9763 29.8005 23.4203 29.8005C24.208 29.8005 24.9695 29.7218 25.7046 29.5905C26.0722 29.5117 26.7023 29.4067 27.49 29.1179C28.2252 28.8553 29.2754 28.4615 30.2732 27.5425C30.8245 27.0437 31.1921 26.7023 31.4022 26.1247C31.9273 24.7857 30.9296 24.0505 30.667 21.6087C30.5882 20.926 30.4832 19.7445 30.8508 18.3529C31.3234 16.5413 32.1111 16.305 31.9273 15.4648V15.4385ZM27.5688 25.7309C27.0699 26.5711 26.4398 27.0174 25.6784 27.0174C24.9169 27.0174 24.2868 26.5711 23.7617 25.7309C23.2366 24.8382 22.9477 23.7879 22.9477 22.5276C22.9477 21.9237 23.0002 21.3461 23.1578 20.7947C23.2891 20.2171 23.4729 19.7708 23.7092 19.3769C23.9455 18.9831 24.2343 18.6418 24.5756 18.4054C24.8907 18.1691 25.2583 18.0379 25.6521 18.0379C26.0197 18.0379 26.361 18.1691 26.6761 18.4054C27.0174 18.6418 27.3062 18.9831 27.5425 19.3769C27.7788 19.7708 27.9626 20.2171 28.0939 20.7947C28.2514 21.3724 28.304 21.9237 28.304 22.5276C28.304 23.7879 28.0677 24.8382 27.5425 25.7309H27.5688Z" fill="var(--fill-0, #4F5826)"/>
<path id="Vector_2" d="M52.6956 17.6439C52.1443 16.5674 51.4091 15.6485 50.4639 14.8345C49.5187 14.0206 48.3896 13.3905 47.1294 12.9441C45.8428 12.4978 44.4775 12.2615 43.0597 12.2615C41.6419 12.2615 40.2503 12.4978 38.99 12.9441C37.7035 13.3905 36.6007 14.0206 35.6555 14.8345C34.7103 15.6485 33.9488 16.5674 33.4237 17.6439C33.345 17.7752 33.2924 17.9328 33.2399 18.064C32.8198 19.0092 32.6098 20.007 32.6098 21.031C32.6098 22.1075 32.8198 23.1314 33.2399 24.0767C33.2924 24.2079 33.345 24.3392 33.4237 24.4705C33.9488 25.547 34.7103 26.466 35.6555 27.2536C36.6007 28.0413 37.7035 28.6715 38.99 29.1178C40.2503 29.5642 41.6156 29.8005 43.0597 29.8005C44.5038 29.8005 45.8428 29.5642 47.1294 29.1178C48.3896 28.6715 49.5187 28.0413 50.4639 27.2536C51.4091 26.466 52.1443 25.547 52.6956 24.4705C53.2207 23.394 53.5096 22.265 53.5096 21.031C53.5096 19.7969 53.2207 18.7204 52.6956 17.6439ZM40.8017 25.3107C40.3028 26.0984 39.6989 26.4397 38.9637 26.4397C38.2286 26.4397 37.6247 26.0721 37.1521 25.3107C36.6795 24.5755 36.4169 23.6303 36.4169 22.5276C36.4169 22.0024 36.4694 21.5036 36.6007 21.031C36.732 20.5321 36.9158 20.112 37.1521 19.7969C37.3621 19.4293 37.6509 19.1668 37.966 18.9305C38.2811 18.7204 38.5962 18.6154 38.9375 18.6154C39.3313 18.6154 39.6727 18.7204 39.9877 18.9305C40.3028 19.1405 40.5916 19.4293 40.8017 19.7969C41.0117 20.112 41.2218 20.5321 41.353 21.031C41.4843 21.5036 41.5368 22.0024 41.5368 22.5276C41.5368 23.6303 41.2743 24.5493 40.7754 25.3107H40.8017Z" fill="var(--fill-0, #4F5826)"/>
<path id="Vector_3" d="M80.2381 25.6784C80.0281 25.3108 79.8181 24.9695 79.6605 24.6019C79.503 24.2343 79.4242 23.7879 79.4242 23.3153C79.4242 22.7377 79.503 22.2388 79.6605 21.8187C79.8181 21.3724 80.0281 20.9785 80.2381 20.6372C80.4482 20.2696 80.6582 19.9283 80.8158 19.6132C80.9733 19.2719 81.0521 18.9043 81.0521 18.5367C81.0521 17.6965 80.7895 17.0927 80.2644 16.7513C79.7393 16.3837 79.0829 16.2262 78.2952 16.2262C77.5075 16.2262 76.6411 16.3575 75.7221 16.6726C74.8032 16.9614 73.963 17.329 73.1753 17.8016C72.3614 18.2479 71.705 18.7468 71.1798 19.2982C70.6547 19.8233 70.3921 20.3747 70.3921 20.8998C70.3921 21.3461 70.4972 21.7137 70.7072 22.0288C70.9173 22.3176 71.1536 22.5802 71.3899 22.8427C71.6262 23.079 71.8625 23.3153 72.0725 23.5779C72.2826 23.8142 72.3876 24.103 72.3876 24.4181C72.3876 24.7594 72.3088 25.0745 72.125 25.3633C71.9413 25.6259 71.7575 25.9147 71.5737 26.1772C71.3899 26.4398 71.2061 26.7024 71.0223 27.0174C70.8385 27.3062 70.7597 27.6476 70.7597 28.0414C70.7597 29.1967 71.2061 29.9844 72.0725 30.457C72.9652 30.9033 74.2518 31.1396 75.9322 31.1396C77.6125 31.1396 78.8991 30.9033 79.7655 30.457C80.632 29.9844 81.0521 29.1967 81.0521 28.0414C81.0521 27.5425 80.9733 27.1224 80.8158 26.7549C80.6582 26.3873 80.4482 26.0197 80.2381 25.6784ZM73.7004 7.53547C71.5999 8.40192 70.3921 9.76723 70.3921 9.76723C69.3157 10.975 69.3419 11.7889 68.3967 12.6291C67.714 13.2593 66.48 13.9419 64.117 13.8632C64.222 13.4431 64.3533 13.0492 64.5108 12.7342C64.6683 12.3928 64.7996 12.0778 64.9572 11.7627C65.0884 11.4476 65.2197 11.1325 65.3247 10.8175C65.4298 10.5024 65.4823 10.1348 65.4823 9.76723C65.4823 9.13709 65.246 8.58571 64.7996 8.13936C64.327 7.66675 63.6444 7.4567 62.6991 7.4567C61.7539 7.4567 60.9662 7.74552 60.3624 8.34941C59.7585 8.9533 59.2859 9.6097 58.8658 10.3449C58.4719 11.08 58.1043 11.7627 57.7368 12.4191C57.3954 13.0492 56.9753 13.4168 56.529 13.4956C56.1351 13.233 55.8201 12.9705 55.5313 12.7079C55.1899 12.2878 54.7698 12.0778 54.3235 12.104C53.8771 12.104 53.457 12.2616 53.0894 12.5504C52.7219 12.8129 52.4593 13.1805 52.3018 13.6531C52.1442 14.0995 52.1705 14.5458 52.3805 15.0184C52.7219 15.6748 53.247 16.2525 53.9559 16.7251C54.6648 17.1977 55.4525 17.5653 56.3714 17.8541V25.6784C56.3714 26.6236 56.5552 27.4375 56.9491 28.1202C57.3429 28.8028 57.8155 29.3542 58.4194 29.8268C59.0233 30.2732 59.6797 30.6145 60.3886 30.8245C61.0975 31.0346 61.8064 31.1396 62.5153 31.1396C63.0667 31.1396 63.6706 31.0871 64.327 31.0083C64.9834 30.9033 65.5873 30.7458 66.1912 30.5357C66.7951 30.2994 67.3465 29.9843 67.8716 29.6168C68.3967 29.2229 68.843 28.7241 69.1844 28.1464C69.4994 27.6213 69.6307 27.175 69.552 26.8599C69.4732 26.5186 69.3157 26.256 69.0531 26.0985C68.7905 25.9147 68.4755 25.8096 68.1341 25.8096C67.7928 25.7834 67.4777 25.8359 67.1889 25.9934C66.4538 26.3348 65.8761 26.5186 65.4298 26.5448C64.9834 26.5448 64.6683 26.466 64.432 26.3085C64.1957 26.1247 64.0382 25.8622 63.9594 25.4946C63.8807 25.127 63.8282 24.7069 63.8282 24.2605C63.6706 23.5254 63.198 20.8998 64.7209 18.3792C64.8784 18.1166 65.246 17.539 65.8499 16.9351C65.9286 16.8564 66.0074 16.7776 66.0862 16.6988C68.4492 14.3883 70.6022 12.7867 72.1776 11.6839C73.6741 10.6599 74.9607 9.89851 76.7198 9.76723C77.7963 9.68846 78.689 9.89851 79.2667 10.056C78.1639 10.1611 76.3523 10.4761 74.4356 11.6052C72.6764 12.6291 71.4686 13.9944 70.6547 15.2285C72.0725 15.281 73.5166 15.5698 75.0395 15.4123C77.1137 15.1497 80.0544 13.8894 83.3101 8.97955C82.9425 8.76951 78.0326 5.77632 73.7004 7.53547Z" fill="var(--fill-0, #4F5826)"/>
<path id="Vector_4" d="M94.3114 30.9033C92.8674 30.9033 91.502 30.667 90.2418 30.2207C88.9552 29.7743 87.8525 29.1442 86.9072 28.3565C85.962 27.5688 85.2006 26.6499 84.6755 25.5734C84.1504 24.4969 83.8616 23.3679 83.8616 22.1338C83.8616 20.8998 84.1241 19.8233 84.6755 18.7468C85.2269 17.6703 85.962 16.7514 86.9072 15.9374C87.8525 15.1235 88.9815 14.4933 90.2418 14.047C91.502 13.6006 92.8936 13.3643 94.3114 13.3643C95.6505 13.3643 96.9108 13.5481 98.066 13.942C99.2476 14.3358 100.272 14.8347 101.138 15.4648C102.004 16.095 102.713 16.8039 103.212 17.5653C103.711 18.3267 103.974 19.1144 103.974 19.8758C103.974 20.8998 103.606 21.635 102.897 22.1076C102.188 22.5802 101.348 22.974 100.429 23.2628C99.5101 23.5517 98.6174 23.8667 97.7247 24.1555C96.832 24.4444 96.2544 24.9432 95.9393 25.5996C96.9896 25.9935 98.0135 26.1247 98.985 26.0197C99.9565 25.9147 100.639 25.5209 101.033 24.8645C101.217 24.5756 101.479 24.3918 101.873 24.3131C102.267 24.2343 102.635 24.2343 102.976 24.3131C103.317 24.4181 103.58 24.6282 103.764 24.917C103.947 25.2058 103.895 25.5996 103.659 26.046C102.818 27.5163 101.558 28.6978 99.904 29.5643C98.2236 30.4307 96.3594 30.8771 94.2852 30.8771L94.3114 30.9033ZM96.2806 17.0402C96.2806 16.5413 96.0443 16.2 95.5455 16.0162C95.0466 15.8324 94.5215 15.8061 93.9176 15.9637C93.34 16.1212 92.7886 16.4888 92.2897 17.0664C91.7909 17.6441 91.5546 18.4842 91.5546 19.5607C91.5546 20.6372 91.7646 21.5299 92.211 22.3439C92.6573 23.1578 93.2087 23.8142 93.8913 24.3393C93.9701 23.7092 94.1277 23.0528 94.3902 22.3964C94.6528 21.74 94.9153 21.0573 95.2041 20.4009C95.493 19.7445 95.7293 19.1144 95.9656 18.5368C96.2019 17.9591 96.3069 17.4603 96.3069 17.0402H96.2806Z" fill="var(--fill-0, #4F5826)"/>
<path id="Vector_5" d="M56.897 4.85728C55.4529 6.66894 53.2211 8.84819 50.1229 9.45208C47.6811 9.95094 46.8409 9.05824 43.9265 9.05824C42.1411 9.05824 40.802 9.39956 39.7518 9.81966C40.2507 9.05824 41.0383 8.08676 42.2199 7.27283C42.4562 7.11529 43.3751 6.48515 44.9505 6.01254C47.4448 5.25112 49.8341 5.32988 51.672 5.67121C50.8843 5.32988 49.7816 4.93604 48.39 4.75225C47.2085 4.59472 45.5019 4.59472 44.1366 4.93604C41.616 5.59244 39.8831 7.48288 38.4653 9.08449C37.2312 10.4498 36.6799 11.4738 35.1045 12.1564C34.0017 12.6291 33.0303 12.6291 32.7677 12.6291C31.0873 12.6291 29.8533 11.6313 27.9366 10.1347C27.0964 9.47833 27.254 9.53084 26.3087 8.74316C24.7071 7.43036 22.948 6.01254 20.8737 5.40865C20.8737 5.40865 19.0621 4.75225 17.4867 5.1986C17.3817 5.1986 17.3292 5.22486 17.2767 5.25112C15.9376 5.6187 14.9924 6.38012 14.4935 6.82648C15.7013 6.32761 17.8806 5.64496 20.2173 6.32761C21.1888 6.61643 22.0028 7.11529 22.5279 7.40411C22.8955 7.5879 23.2368 7.8242 23.5256 8.06051C23.0792 7.98174 22.5541 7.98174 21.9765 8.06051C20.1123 8.29681 19.8498 8.95321 17.7755 9.16326C14.5723 9.42582 11.8942 8.03425 10.0825 6.85273C13.2858 4.33216 17.408 1.99537 21.4776 2.94059C27.4377 4.33216 29.1444 11.8414 33.1878 11.3425C36.1547 10.9487 35.9184 6.80022 41.4322 3.54448C42.7975 2.73054 45.6331 1.10267 49.414 1.41774C53.3524 1.75907 55.978 4.01709 56.9232 4.90979L56.897 4.85728Z" fill="var(--fill-0, #4F5826)"/>
</g>
<defs>
<clipPath id="clip0_0_17">
<rect width="104" height="31.1396" fill="white"/>
</clipPath>
</defs>
</svg>
