<svg preserveAspectRatio="none" width="100%" height="100%" overflow="visible" style="display: block;" viewBox="0 0 24 24" fill="none" xmlns="http://www.w3.org/2000/svg">
<g id="Isolation_Mode">
<path id="Vector" d="M18.0078 20.2004L20.6763 23M15.8323 10.9914C15.3537 10.623 15.2377 9.90099 15.6147 9.37055C15.9918 8.84011 16.717 8.7075 17.1956 9.07586C18.3994 9.97467 19.3276 11.1092 19.9077 12.4353C21.6336 7.57294 20.5893 2.9905 15.0056 3.37359C11.5684 -1.03203 7.43495 1.23709 4.9404 5.76059C6.31821 5.30382 7.79753 5.23015 9.24785 5.53957C9.85698 5.67218 10.2486 6.2763 10.089 6.90988C9.944 7.52873 9.33487 7.95604 8.72573 7.82343C6.86933 7.42559 4.98391 7.85289 3.51909 9.179C3.0985 10.4904 2.85195 11.8754 2.75042 13.2899C3.93969 12.5827 5.21596 12.4501 6.49224 12.4501C7.11588 12.4501 7.69601 12.7742 7.76852 13.3931C7.85554 14.0267 7.42045 14.7192 6.79681 14.7487C-0.106701 14.9844 3.64962 19.4195 6.50675 22.2191C8.21812 22.3222 10.2776 22.3664 11.7134 21.9538M19.139 17.3419C19.139 19.5669 17.4131 21.3792 15.2957 21.3792C13.1782 21.3792 11.4523 19.5669 11.4523 17.3419C11.4523 15.117 13.1782 13.3047 15.2957 13.3047C17.4131 13.3047 19.139 15.117 19.139 17.3419Z" stroke="var(--stroke-0, #4F5826)" stroke-opacity="0.5" stroke-width="1.5" stroke-linecap="round" stroke-linejoin="round"/>
</g>
</svg>
