<svg preserveAspectRatio="none" width="100%" height="100%" overflow="visible" style="display: block;" viewBox="0 0 21.5 21.5002" fill="none" xmlns="http://www.w3.org/2000/svg">
<path id="Vector" d="M6.74969 10.7497H6.75969M10.7497 10.7497H10.7597M14.7497 10.7497H14.7597M1.74169 15.0917C1.88873 15.4626 1.92147 15.869 1.83569 16.2587L0.770692 19.5487C0.736376 19.7155 0.745249 19.8884 0.796468 20.0508C0.847686 20.2133 0.939554 20.36 1.06336 20.477C1.18716 20.594 1.3388 20.6774 1.50389 20.7193C1.66898 20.7613 1.84205 20.7604 2.00669 20.7167L5.41969 19.7187C5.78741 19.6458 6.16822 19.6776 6.51869 19.8107C8.65408 20.8079 11.0731 21.0189 13.3488 20.4064C15.6246 19.7939 17.611 18.3973 18.9574 16.4631C20.3038 14.5288 20.9238 12.1811 20.708 9.83424C20.4922 7.48739 19.4544 5.29216 17.7778 3.63589C16.1011 1.97962 13.8934 0.968733 11.5441 0.781592C9.19475 0.59445 6.85483 1.24308 4.93713 2.61303C3.01944 3.98299 1.64722 5.98624 1.06259 8.26933C0.477947 10.5524 0.718461 12.9686 1.74169 15.0917Z" stroke="var(--stroke-0, #4F5826)" stroke-opacity="0.5" stroke-width="1.5" stroke-linecap="round" stroke-linejoin="round"/>
</svg>
