<svg preserveAspectRatio="none" width="100%" height="100%" overflow="visible" style="display: block;" viewBox="0 0 17.4978 17.4983" fill="none" xmlns="http://www.w3.org/2000/svg">
<g id="Group">
<path id="Vector" d="M13.0312 3.74361L16.7748 3.76303e-07L17.4978 0.723017L13.7542 4.46663L13.0312 3.74361Z" fill="var(--fill-0, #C4C35B)"/>
<path id="Vector_2" d="M9.59265 0.539921C8.35554 0.266634 6.29097 0.892601 4.39337 2.28975C5.31901 2.62123 6.33123 3.18076 7.24545 4.11969C7.71168 4.59853 7.63832 5.38141 7.09246 5.76701C6.65541 6.07579 6.05917 6.0206 5.68539 5.63768C5.00042 4.93601 4.16177 4.45103 3.18245 4.19172C2.93306 4.12569 2.699 4.08171 2.48967 4.0525C1.63725 5.04407 0.922415 6.2282 0.480458 7.58744C1.5312 7.49114 2.80659 7.58581 4.14991 8.1633C4.76388 8.42728 4.99571 9.17862 4.63901 9.74378C4.35342 10.1963 3.78141 10.3735 3.28955 10.1628C2.38822 9.7766 1.42778 9.64949 0.423768 9.78468C0.285949 9.80326 0.154845 9.8261 0.0310352 9.85146C-0.104807 11.582 0.195546 13.5232 1.1251 15.65L13.0327 3.74243C12.6541 2.82354 11.6573 0.996025 9.59265 0.539921Z" fill="var(--fill-0, #C4C35B)"/>
<path id="Vector_3" d="M13.7558 4.46558L1.84819 16.3732C3.97497 17.3028 5.91617 17.6031 7.64678 17.4673C7.67214 17.3434 7.69498 17.2123 7.71356 17.0745C7.84875 16.0705 7.72163 15.1101 7.33548 14.2088C7.12474 13.7169 7.30197 13.1449 7.75446 12.8593C8.31961 12.5026 9.07099 12.7344 9.33494 13.3484C9.91243 14.6917 10.0071 15.9671 9.9108 17.0178C11.27 16.5759 12.4542 15.861 13.4457 15.0086C13.4165 14.7993 13.3725 14.5652 13.3065 14.3159C13.0472 13.3365 12.5622 12.4979 11.8606 11.8129C11.4776 11.4391 11.4224 10.8429 11.7312 10.4058C12.1169 9.85998 12.8997 9.78662 13.3786 10.2529C14.3175 11.1671 14.877 12.1793 15.2085 13.1049C16.6056 11.2073 17.2316 9.1428 16.9584 7.90566C16.5023 5.84095 14.6747 4.8442 13.7558 4.46558Z" fill="var(--fill-0, #C4C35B)"/>
</g>
</svg>
