<svg preserveAspectRatio="none" width="100%" height="100%" overflow="visible" style="display: block;" viewBox="0 0 17.5 17.5" fill="none" xmlns="http://www.w3.org/2000/svg">
<g id="Icon">
<path id="Vector" d="M6.19792 10.5729C6.68138 10.5729 7.14505 10.3809 7.48691 10.039C7.82878 9.69713 8.02083 9.23347 8.02083 8.75C8.02083 7.74375 7.65625 7.29167 7.29167 6.5625C6.51 4.9999 7.12833 3.60646 8.75 2.1875C9.11458 4.01042 10.2083 5.76042 11.6667 6.92708C13.125 8.09375 13.8542 9.47917 13.8542 10.9375C13.8542 11.6078 13.7221 12.2715 13.4656 12.8908C13.2091 13.51 12.8332 14.0727 12.3592 14.5467C11.8852 15.0207 11.3225 15.3966 10.7033 15.6531C10.084 15.9096 9.42029 16.0417 8.75 16.0417C8.07971 16.0417 7.41599 15.9096 6.79672 15.6531C6.17745 15.3966 5.61477 15.0207 5.14081 14.5467C4.66684 14.0727 4.29087 13.51 4.03436 12.8908C3.77786 12.2715 3.64583 11.6078 3.64583 10.9375C3.64583 10.0968 3.96156 9.26479 4.375 8.75C4.375 9.23347 4.56706 9.69713 4.90892 10.039C5.25078 10.3809 5.71445 10.5729 6.19792 10.5729Z" fill="var(--fill-0, #4F5826)"/>
</g>
</svg>
